<svg width="53" height="54" viewBox="0 0 53 54" fill="none" xmlns="http://www.w3.org/2000/svg">
<rect y="0.927246" width="52.7027" height="52.7027" rx="25" fill="#E7EBF7"/>
<g clip-path="url(#clip0_12_1594)">
<path d="M26 17.0474V39.0474" stroke="#015180" stroke-width="2" stroke-linecap="round" stroke-linejoin="round"/>
<path d="M31 21.0474H23.5C22.5717 21.0474 21.6815 21.4161 21.0251 22.0725C20.3687 22.7289 20 23.6191 20 24.5474C20 25.4756 20.3687 26.3659 21.0251 27.0222C21.6815 27.6786 22.5717 28.0474 23.5 28.0474H28.5C29.4283 28.0474 30.3185 28.4161 30.9749 29.0725C31.6313 29.7289 32 30.6191 32 31.5474C32 32.4756 31.6313 33.3659 30.9749 34.0222C30.3185 34.6786 29.4283 35.0474 28.5 35.0474H20" stroke="#015180" stroke-width="2" stroke-linecap="round" stroke-linejoin="round"/>
</g>
<defs>
<clipPath id="clip0_12_1594">
<rect width="24" height="24" fill="white" transform="translate(14 16.0474)"/>
</clipPath>
</defs>
</svg>
