<svg width="80" height="80" viewBox="0 0 80 80" fill="none" xmlns="http://www.w3.org/2000/svg">
<rect width="80" height="80" rx="40" fill="#E7EBF7"/>
<path d="M40.0003 58.3334C36.8892 58.3334 34.0281 57.625 31.417 56.2084C28.8059 54.7917 26.667 52.9028 25.0003 50.5417V55H21.667V45H31.667V48.3334H27.542C28.8753 50.3334 30.6325 51.9445 32.8137 53.1667C34.9948 54.3889 37.3903 55 40.0003 55C42.0837 55 44.0353 54.6045 45.8553 53.8134C47.6753 53.0222 49.2587 51.9528 50.6053 50.605C51.952 49.2572 53.0214 47.6739 53.8137 45.855C54.6059 44.0361 55.0014 42.0845 55.0003 40H58.3337C58.3337 42.5278 57.8548 44.9028 56.897 47.125C55.9392 49.3472 54.6264 51.2917 52.9587 52.9584C51.2909 54.625 49.3464 55.9378 47.1253 56.8967C44.9042 57.8556 42.5292 58.3345 40.0003 58.3334ZM38.5003 51.6667V49.5C37.1948 49.1945 36.1325 48.6322 35.3137 47.8134C34.4948 46.9945 33.8903 45.9178 33.5003 44.5834L36.2503 43.5C36.5837 44.6389 37.1048 45.4934 37.8137 46.0634C38.5225 46.6334 39.3348 46.9178 40.2503 46.9167C41.1659 46.9156 41.9509 46.7006 42.6053 46.2717C43.2598 45.8428 43.5859 45.1689 43.5837 44.25C43.5837 43.4445 43.2437 42.7917 42.5637 42.2917C41.8837 41.7917 40.6681 41.2222 38.917 40.5834C37.2781 40 36.077 39.3056 35.3137 38.5C34.5503 37.6945 34.1681 36.6389 34.167 35.3334C34.167 34.1945 34.5631 33.16 35.3553 32.23C36.1475 31.3 37.2237 30.6956 38.5837 30.4167V28.3334H41.5003V30.4167C42.5003 30.5 43.4103 30.9028 44.2303 31.625C45.0503 32.3472 45.6125 33.1945 45.917 34.1667L43.2503 35.25C43.0281 34.6111 42.667 34.0767 42.167 33.6467C41.667 33.2167 40.9725 33.0011 40.0837 33C39.1114 33 38.3681 33.2084 37.8537 33.625C37.3392 34.0417 37.0825 34.6111 37.0837 35.3334C37.0848 36.0556 37.4042 36.625 38.042 37.0417C38.6798 37.4584 39.8325 37.9445 41.5003 38.5C43.5003 39.2222 44.8337 40.0695 45.5003 41.0417C46.167 42.0139 46.5003 43.0834 46.5003 44.25C46.5003 45.0556 46.3614 45.7639 46.0837 46.375C45.8059 46.9861 45.4375 47.5072 44.9787 47.9384C44.5198 48.3695 43.9853 48.7167 43.3753 48.98C42.7653 49.2434 42.1125 49.4445 41.417 49.5834V51.6667H38.5003ZM21.667 40C21.667 37.4722 22.1464 35.0972 23.1053 32.875C24.0642 30.6528 25.3764 28.7084 27.042 27.0417C28.7075 25.375 30.652 24.0628 32.8753 23.105C35.0987 22.1472 37.4737 21.6678 40.0003 21.6667C43.1114 21.6667 45.9725 22.375 48.5837 23.7917C51.1948 25.2084 53.3337 27.0972 55.0003 29.4584V25H58.3337V35H48.3337V31.6667H52.4587C51.1253 29.6667 49.3687 28.0556 47.1887 26.8334C45.0087 25.6111 42.6125 25 40.0003 25C37.917 25 35.9659 25.3961 34.147 26.1884C32.3281 26.9806 30.7448 28.0495 29.397 29.395C28.0492 30.7406 26.9798 32.3239 26.1887 34.145C25.3975 35.9661 25.0014 37.9178 25.0003 40H21.667Z" fill="#015180"/>
</svg>
