<svg width="80" height="80" viewBox="0 0 80 80" fill="none" xmlns="http://www.w3.org/2000/svg">
<rect width="80" height="80" rx="40" fill="#E7EBF7"/>
<g clip-path="url(#clip0_22_636)">
<path d="M41.4765 55.3821C41.4734 54.8933 41.3945 48.6164 39.4029 43.2152C37.329 37.5913 33.8138 32.8808 33.8138 32.8808C33.8138 32.8808 41.0901 37.3099 44.4295 41.0008C47.3066 44.181 49.819 49.1883 50.4588 50.5125C49.7652 51.0247 49.3154 51.848 49.3154 52.7761C49.3154 54.3292 50.5745 55.5885 52.1274 55.5885C53.6804 55.5885 54.9396 54.3292 54.9396 52.7761C54.9396 51.2707 53.756 50.0411 52.2685 49.9677C51.8238 48.8321 49.943 44.3985 46.1518 40.1219C41.758 35.1657 35.6416 31.8614 35.6416 31.8614C35.6416 31.8614 42.2501 33.9705 45.5893 35.4467C48.5534 36.7574 53.4568 39.4803 54.5209 40.0757C54.4254 40.3626 54.3769 40.6631 54.3771 40.9655C54.3771 42.5186 55.6362 43.7777 57.1891 43.7777C58.7421 43.7777 60.0013 42.5186 60.0013 40.9655C60.0013 39.4127 58.7421 38.1535 57.1891 38.1535C56.5974 38.1535 56.0485 38.3363 55.5955 38.6485C54.5143 37.9366 50.0901 35.15 43.4101 32.5996C35.6768 29.6469 29.9824 28.6277 29.9824 28.6277L28.998 30.8421C28.998 30.8421 32.7374 33.3202 36.4282 41.3346C39.8141 48.6869 39.5946 54.2199 39.5352 55.0838C38.2559 55.3475 37.2938 56.4807 37.2938 57.8378C37.2938 59.391 38.5529 60.6502 40.1059 60.6502C41.6588 60.6502 42.918 59.391 42.918 57.8378C42.918 56.7827 42.3365 55.863 41.4765 55.3821Z" fill="#3D4C67"/>
<path d="M29.9825 29.0144C29.9825 30.4899 28.7865 31.6858 27.3109 31.6858C25.8357 31.6858 24.6396 30.4899 24.6396 29.0144C24.6396 27.5391 25.8357 26.3428 27.3109 26.3428C28.7865 26.3428 29.9825 27.5391 29.9825 29.0144Z" fill="#F6861A"/>
<path d="M42.9184 23.8822C42.9184 25.4353 41.6592 26.6942 40.1062 26.6942C38.5533 26.6942 37.2942 25.4353 37.2942 23.8822C37.2942 22.329 38.5531 21.0701 40.1062 21.0701C41.6594 21.0701 42.9184 22.3292 42.9184 23.8822ZM54.94 29.1548C54.94 30.7079 53.6808 31.9668 52.1278 31.9668C50.5748 31.9668 49.3156 30.7078 49.3156 29.1547C49.3156 27.6018 50.5747 26.3426 52.1277 26.3426C53.6806 26.3426 54.9398 27.6018 54.9398 29.1547M30.6859 52.987C30.6859 54.5401 29.4269 55.7993 27.8737 55.7993C26.3208 55.7993 25.0617 54.5401 25.0617 52.987C25.0617 51.4342 26.3208 50.1751 27.8737 50.1751C29.4267 50.1751 30.6859 51.4342 30.6859 52.987ZM25.6242 40.9656C25.6242 42.5187 24.3652 43.7778 22.812 43.7778C21.2591 43.7778 20 42.5186 20 40.9654C20 39.4126 21.2591 38.1536 22.812 38.1536C24.365 38.1536 25.6242 39.4128 25.6242 40.9656Z" fill="#3D4C67"/>
</g>
<defs>
<clipPath id="clip0_22_636">
<rect width="40" height="39.6875" fill="white" transform="translate(20 21)"/>
</clipPath>
</defs>
</svg>
