<svg width="80" height="81" viewBox="0 0 80 81" fill="none" xmlns="http://www.w3.org/2000/svg">
<rect y="0.800049" width="80" height="80" rx="40" fill="#E7EBF7"/>
<g clip-path="url(#clip0_22_646)">
<path d="M60 42C60 53.045 51.045 62 40 62C28.955 62 20 53.045 20 42C20 38.9567 20.6783 36.075 21.895 33.4917C21.1316 35.3953 20.7335 37.4257 20.7217 39.4767C20.7217 48.5333 28.0333 49.8433 31.145 49.815C35.8733 49.7717 41.4017 47.455 46.0583 43.1633L45.2733 47.58C45.0967 48.5883 45.7567 49.4767 46.7667 49.4833H47.1833C48.2283 49.4833 48.9717 48.6317 49.16 47.5783L50.8367 38.1417C51.0367 37.095 50.3483 36.2417 49.3017 36.2417H39.8467C38.7967 36.2417 37.835 36.7983 37.6467 37.855L37.5733 38.28C37.4233 39.285 38.1233 40.0417 39.125 40.0417H44.0583L43.8217 40.2733C40.4217 43.49 36.2283 45.2533 32.755 45.2533C29.2883 45.2533 25.405 43.065 25.405 38.1383C25.405 27.925 34.9833 22 40 22C51.0233 22 60 30.955 60 42Z" fill="#015180"/>
</g>
<defs>
<clipPath id="clip0_22_646">
<rect width="40" height="40" fill="white" transform="translate(20 22)"/>
</clipPath>
</defs>
</svg>
