<svg width="80" height="80" viewBox="0 0 80 80" fill="none" xmlns="http://www.w3.org/2000/svg">
<rect width="80" height="80" rx="40" fill="#E7EBF7"/>
<path d="M39.1663 56C31.703 56 27.9697 56 25.6513 53.6817C23.333 51.3634 23.333 47.6317 23.333 40.1667C23.333 32.7034 23.333 28.97 25.6513 26.6517C27.9697 24.3334 31.7013 24.3334 39.1663 24.3334C46.6297 24.3334 50.363 24.3334 52.6813 26.6517C54.9997 28.97 54.9997 32.7017 54.9997 40.1667M23.333 32.6667H54.9997M36.6663 47.6667H38.333M29.9997 47.6667H31.6663M36.6663 41H43.333M29.9997 41H31.6663" stroke="#015180" stroke-width="1.5" stroke-linecap="round" stroke-linejoin="round"/>
<path d="M53.9997 55L56.6663 57.6667M55.333 50.3334C55.333 48.7421 54.7009 47.216 53.5756 46.0907C52.4504 44.9655 50.9243 44.3334 49.333 44.3334C47.7417 44.3334 46.2156 44.9655 45.0904 46.0907C43.9651 47.216 43.333 48.7421 43.333 50.3334C43.333 51.9247 43.9651 53.4508 45.0904 54.576C46.2156 55.7012 47.7417 56.3334 49.333 56.3334C50.9243 56.3334 52.4504 55.7012 53.5756 54.576C54.7009 53.4508 55.333 51.9247 55.333 50.3334Z" stroke="#015180" stroke-width="1.5" stroke-linecap="round" stroke-linejoin="round"/>
</svg>
