<svg width="53" height="54" viewBox="0 0 53 54" fill="none" xmlns="http://www.w3.org/2000/svg">
<rect y="0.662598" width="52.7027" height="52.7027" rx="25" fill="#E7EBF7"/>
<g clip-path="url(#clip0_12_1601)">
<path d="M25 14.9829C19.412 14.9829 14.248 18.4599 15.219 26.7329C15.046 26.8709 14.879 27.0189 14.75 27.2019C14.247 27.9119 14 28.8349 14 29.8269C14 31.0719 14.734 32.0299 15.5 32.7329C16.06 33.2479 16.633 33.6069 17.281 33.7959C17.791 35.4359 18.73 36.7959 19.844 37.7329C19.9431 37.8268 20.0604 37.8993 20.1886 37.9461C20.3168 37.993 20.4532 38.013 20.5895 38.0051C20.7258 37.9972 20.859 37.9615 20.9809 37.9002C21.1029 37.8388 21.2109 37.7532 21.2985 37.6485C21.3861 37.5438 21.4514 37.4223 21.4902 37.2915C21.5291 37.1606 21.5407 37.0232 21.5245 36.8877C21.5082 36.7522 21.4644 36.6214 21.3957 36.5035C21.327 36.3855 21.2349 36.2829 21.125 36.2019C20.119 35.3549 19.278 34.2239 18.969 32.7639C18.9195 32.5434 18.7968 32.3461 18.6208 32.2043C18.4448 32.0625 18.226 31.9844 18 31.9829C18.123 31.9829 17.354 31.7329 16.844 31.2639C16.334 30.7949 16 30.2089 16 29.8269C16 29.3629 16.111 28.9749 16.25 28.6709C16.3858 28.8251 16.5658 28.9337 16.7656 28.9819C16.9653 29.0302 17.175 29.0157 17.3662 28.9405C17.5575 28.8654 17.7209 28.7331 17.8343 28.5618C17.9477 28.3904 18.0055 28.1883 18 27.9829V27.1389C18.0015 27.1076 18.0015 27.0762 18 27.0449C18.04 26.3322 18.1337 25.6762 18.281 25.0769C19.66 24.6029 20.808 25.3719 22 21.8579C23.74 27.0309 28.246 24.0719 31.344 23.9209C31.708 24.8059 31.934 25.8459 32 27.0449C31.9985 27.0762 31.9985 27.1076 32 27.1389V27.9829C32 28.2481 32.1054 28.5025 32.2929 28.69C32.4804 28.8776 32.7348 28.9829 33 28.9829V31.4519C32.566 31.7929 32.085 31.9829 32 31.9829C31.774 31.9844 31.5552 32.0625 31.3792 32.2043C31.2032 32.3461 31.0805 32.5434 31.031 32.7639C30.827 33.7299 30.373 34.5429 29.813 35.2329C29.7289 35.3355 29.6658 35.4536 29.6273 35.5805C29.5889 35.7075 29.5758 35.8408 29.5888 35.9728C29.6019 36.1048 29.6408 36.2329 29.7034 36.3499C29.7659 36.4668 29.8509 36.5703 29.9535 36.6544C30.0561 36.7385 30.1742 36.8016 30.3011 36.8401C30.4281 36.8785 30.5613 36.8916 30.6933 36.8786C30.8253 36.8655 30.9535 36.8266 31.0704 36.764C31.1874 36.7015 31.2909 36.6165 31.375 36.5139C31.975 35.7749 32.373 34.8079 32.688 33.7959C33.2825 33.6467 33.8371 33.3692 34.313 32.9829H35C34.755 34.2639 34.304 35.2309 33.844 35.9209C33.194 36.8959 32.634 37.2369 32.594 37.2639C32.565 37.2789 32.21 37.4739 31.187 37.7019C30.407 37.8749 29.284 38.0599 27.781 38.1389C27.58 37.0239 26.412 36.1709 25 36.1709C23.446 36.1709 22.187 37.2059 22.187 38.4829C22.187 39.7599 23.447 40.7959 25 40.7959C25.971 40.7959 26.838 40.3799 27.344 39.7639C29.194 39.6899 30.6 39.4779 31.563 39.2639C32.749 39.0009 33.343 38.7019 33.343 38.7019C33.3758 38.6827 33.4076 38.6617 33.438 38.6389C33.438 38.6389 34.33 38.0339 35.156 36.7959C35.824 35.7939 36.486 34.3409 36.719 32.4209C37.447 31.8759 37.906 30.9849 37.906 29.9829V27.9829C37.906 26.3259 36.656 24.9829 35 24.9829H34.844C34.848 17.9849 30.174 14.9829 25 14.9829ZM33.656 24.8579C33.686 24.8999 33.721 24.9379 33.75 24.9829H33.656C33.648 24.9419 33.665 24.8989 33.656 24.8579ZM21 26.9829C20.4696 26.9829 19.9609 27.1936 19.5858 27.5687C19.2107 27.9438 19 28.4525 19 28.9829C19 29.5133 19.2107 30.0221 19.5858 30.3971C19.9609 30.7722 20.4696 30.9829 21 30.9829C21.5304 30.9829 22.0391 30.7722 22.4142 30.3971C22.7893 30.0221 23 29.5133 23 28.9829C23 28.4525 22.7893 27.9438 22.4142 27.5687C22.0391 27.1936 21.5304 26.9829 21 26.9829ZM29 26.9829C28.4696 26.9829 27.9609 27.1936 27.5858 27.5687C27.2107 27.9438 27 28.4525 27 28.9829C27 29.5133 27.2107 30.0221 27.5858 30.3971C27.9609 30.7722 28.4696 30.9829 29 30.9829C29.5304 30.9829 30.0391 30.7722 30.4142 30.3971C30.7893 30.0221 31 29.5133 31 28.9829C31 28.4525 30.7893 27.9438 30.4142 27.5687C30.0391 27.1936 29.5304 26.9829 29 26.9829Z" fill="#015180"/>
</g>
<defs>
<clipPath id="clip0_12_1601">
<rect width="26" height="26" fill="white" transform="translate(13 14.9829)"/>
</clipPath>
</defs>
</svg>
