<svg width="12" height="93" viewBox="0 0 12 93" fill="none" xmlns="http://www.w3.org/2000/svg">
<path d="M7.81706 9.50048V7.96146C8.14591 7.90227 8.4353 7.7921 8.68523 7.63097C8.93515 7.46983 9.14726 7.27252 9.32155 7.03904C9.49584 6.80555 9.62738 6.54412 9.71617 6.25473C9.80496 5.96863 9.84935 5.66444 9.84935 5.34217C9.84935 4.7601 9.70302 4.23888 9.41034 3.77849C9.11766 3.32139 8.68851 2.95965 8.12289 2.69328C7.55727 2.4302 6.86668 2.29866 6.05114 2.29866C5.22901 2.29866 4.53514 2.4302 3.96952 2.69328C3.40389 2.95965 2.97639 3.32303 2.687 3.78342C2.39761 4.24381 2.25292 4.76175 2.25292 5.33724C2.25292 5.65622 2.29567 5.95876 2.38117 6.24486C2.46996 6.53425 2.59986 6.79569 2.77086 7.02917C2.94186 7.26265 3.15068 7.45996 3.39732 7.6211C3.64724 7.78552 3.93334 7.89898 4.25562 7.96146L4.25068 9.50048C3.75412 9.41827 3.29702 9.25877 2.87938 9.022C2.46503 8.78852 2.10658 8.48762 1.80404 8.11931C1.50478 7.75428 1.27295 7.33664 1.10852 6.86639C0.944095 6.39613 0.861883 5.88313 0.861883 5.32737C0.861883 4.45263 1.06906 3.67325 1.48341 2.98925C1.90105 2.30524 2.49791 1.76592 3.274 1.3713C4.05008 0.979973 4.9758 0.784307 6.05114 0.784307C7.12976 0.784307 8.05548 0.981617 8.82828 1.37624C9.60436 1.77086 10.1996 2.31017 10.6139 2.99418C11.0316 3.67819 11.2404 4.45592 11.2404 5.32737C11.2404 5.8634 11.1631 6.36325 11.0086 6.82693C10.8573 7.29389 10.6337 7.71318 10.3377 8.08478C10.045 8.45638 9.68657 8.76385 9.26236 9.0072C8.84143 9.25055 8.35966 9.41498 7.81706 9.50048ZM0.847085 14.3975C0.847085 13.6871 1.00987 13.0673 1.33543 12.5378C1.66099 12.0084 2.11645 11.5973 2.7018 11.3046C3.28715 11.012 3.97116 10.8656 4.75382 10.8656C5.53977 10.8656 6.22707 11.012 6.81571 11.3046C7.40435 11.5973 7.86146 12.0084 8.18702 12.5378C8.51258 13.0673 8.67536 13.6871 8.67536 14.3975C8.67536 15.1078 8.51258 15.7277 8.18702 16.2571C7.86146 16.7866 7.40435 17.1976 6.81571 17.4903C6.22707 17.783 5.53977 17.9293 4.75382 17.9293C3.97116 17.9293 3.28715 17.783 2.7018 17.4903C2.11645 17.1976 1.66099 16.7866 1.33543 16.2571C1.00987 15.7277 0.847085 15.1078 0.847085 14.3975ZM2.08521 14.4024C2.08521 14.8628 2.20688 15.2443 2.45023 15.5468C2.69358 15.8493 3.01749 16.073 3.42198 16.2177C3.82647 16.3656 4.27206 16.4396 4.75876 16.4396C5.24217 16.4396 5.68611 16.3656 6.0906 16.2177C6.49837 16.073 6.82558 15.8493 7.07222 15.5468C7.31885 15.2443 7.44217 14.8628 7.44217 14.4024C7.44217 13.9387 7.31885 13.554 7.07222 13.2481C6.82558 12.9456 6.49837 12.7203 6.0906 12.5723C5.68611 12.4277 5.24217 12.3553 4.75876 12.3553C4.27206 12.3553 3.82647 12.4277 3.42198 12.5723C3.01749 12.7203 2.69358 12.9456 2.45023 13.2481C2.20688 13.554 2.08521 13.9387 2.08521 14.4024ZM1 19.5756H8.5767V21.0012H7.37311V21.0801C7.78089 21.2182 8.10152 21.4616 8.335 21.8102C8.57177 22.162 8.69016 22.5599 8.69016 23.0039C8.69016 23.096 8.68687 23.2045 8.68029 23.3294C8.67372 23.4577 8.66549 23.558 8.65563 23.6303H7.24486C7.2613 23.5711 7.27939 23.4659 7.29912 23.3146C7.32214 23.1634 7.33365 23.0121 7.33365 22.8608C7.33365 22.5123 7.25966 22.2015 7.11168 21.9285C6.96698 21.6589 6.76474 21.4451 6.50495 21.2873C6.24845 21.1294 5.95577 21.0505 5.62692 21.0505H1V19.5756ZM0.847085 27.9009C0.847085 27.1544 1.00658 26.5115 1.32556 25.9722C1.64783 25.4361 2.1 25.0218 2.68207 24.7291C3.26742 24.4397 3.95307 24.295 4.73903 24.295C5.51511 24.295 6.19912 24.4397 6.79105 24.7291C7.38298 25.0218 7.84501 25.4296 8.17715 25.9524C8.50929 26.4786 8.67536 27.0935 8.67536 27.7973C8.67536 28.2248 8.60466 28.6391 8.46325 29.0403C8.32185 29.4415 8.09987 29.8016 7.79733 30.1206C7.49479 30.4396 7.10181 30.6912 6.6184 30.8753C6.13828 31.0595 5.55457 31.1516 4.86728 31.1516H4.3444V25.1287H5.44934V29.7063C5.83738 29.7063 6.18103 29.6273 6.48029 29.4695C6.78283 29.3116 7.02124 29.0897 7.19553 28.8036C7.36983 28.5208 7.45697 28.1886 7.45697 27.8071C7.45697 27.3928 7.35503 27.0311 7.15114 26.7219C6.95054 26.4161 6.68746 26.1793 6.3619 26.0116C6.03963 25.8472 5.6894 25.765 5.31122 25.765H4.44799C3.94156 25.765 3.51077 25.8538 3.15561 26.0314C2.80045 26.2122 2.52915 26.4638 2.34171 26.7861C2.15755 27.1083 2.06547 27.4849 2.06547 27.9157C2.06547 28.1952 2.10494 28.45 2.18386 28.6802C2.26607 28.9104 2.38775 29.1094 2.54888 29.2771C2.71002 29.4448 2.90897 29.5731 3.14575 29.6619L2.89418 31.0578C2.48311 30.946 2.12302 30.7454 1.8139 30.456C1.50807 30.1699 1.26966 29.8098 1.09866 29.3758C0.930941 28.945 0.847085 28.4533 0.847085 27.9009ZM8.44845 42.0924C8.91542 42.0398 9.27716 41.8227 9.53366 41.4413C9.79345 41.0598 9.92335 40.5797 9.92335 40.0009C9.92335 39.5866 9.85758 39.2281 9.72604 38.9256C9.59778 38.623 9.42021 38.3879 9.1933 38.2202C8.96968 38.0558 8.71482 37.9735 8.42872 37.9735C8.18866 37.9735 7.98149 38.0295 7.8072 38.1413C7.63291 38.2564 7.48657 38.406 7.36818 38.5901C7.25308 38.7776 7.15607 38.9782 7.07715 39.1919C7.00151 39.4057 6.93903 39.6112 6.8897 39.8085L6.6332 40.7951C6.55428 41.1174 6.4474 41.4478 6.31257 41.7866C6.17774 42.1253 6.00016 42.4393 5.77984 42.7287C5.55951 43.0181 5.28656 43.2516 4.961 43.4292C4.63544 43.61 4.24575 43.7005 3.79194 43.7005C3.21974 43.7005 2.71166 43.5525 2.26772 43.2565C1.82377 42.9638 1.47354 42.538 1.21704 41.9789C0.960538 41.4232 0.832286 40.7507 0.832286 39.9614C0.832286 39.2051 0.952317 38.5507 1.19238 37.9982C1.43244 37.4457 1.7728 37.0133 2.21346 36.7009C2.6574 36.3885 3.18356 36.2158 3.79194 36.183V37.7121C3.42691 37.7417 3.12273 37.8601 2.87938 38.0673C2.63932 38.2777 2.46009 38.5457 2.34171 38.8713C2.22661 39.2002 2.16906 39.5602 2.16906 39.9516C2.16906 40.3824 2.23648 40.7655 2.3713 41.1009C2.50942 41.4396 2.70015 41.706 2.9435 41.9C3.19014 42.094 3.47788 42.191 3.80674 42.191C4.10599 42.191 4.35098 42.1055 4.54171 41.9345C4.73245 41.7668 4.8903 41.5383 5.01526 41.2489C5.14022 40.9628 5.25039 40.6389 5.34575 40.2771L5.67131 39.0834C5.89164 38.2744 6.21556 37.6332 6.64307 37.1596C7.07057 36.6894 7.63619 36.4543 8.33993 36.4543C8.922 36.4543 9.43007 36.6121 9.86415 36.9278C10.2982 37.2435 10.6353 37.671 10.8754 38.2103C11.1187 38.7496 11.2404 39.358 11.2404 40.0354C11.2404 40.7194 11.1204 41.3229 10.8803 41.8458C10.6402 42.3719 10.3097 42.7863 9.88882 43.0888C9.47118 43.3914 8.99106 43.5492 8.44845 43.5624V42.0924ZM0.847085 48.669C0.847085 47.9225 1.00658 47.2796 1.32556 46.7403C1.64783 46.2043 2.1 45.7899 2.68207 45.4972C3.26742 45.2078 3.95307 45.0631 4.73903 45.0631C5.51511 45.0631 6.19912 45.2078 6.79105 45.4972C7.38298 45.7899 7.84501 46.1977 8.17715 46.7205C8.50929 47.2467 8.67536 47.8617 8.67536 48.5654C8.67536 48.9929 8.60466 49.4072 8.46325 49.8084C8.32185 50.2096 8.09987 50.5697 7.79733 50.8887C7.49479 51.2077 7.10181 51.4593 6.6184 51.6434C6.13828 51.8276 5.55457 51.9197 4.86728 51.9197H4.3444V45.8968H5.44934V50.4744C5.83738 50.4744 6.18103 50.3954 6.48029 50.2376C6.78283 50.0797 7.02124 49.8578 7.19553 49.5717C7.36983 49.2889 7.45697 48.9567 7.45697 48.5753C7.45697 48.1609 7.35503 47.7992 7.15114 47.4901C6.95054 47.1842 6.68746 46.9475 6.3619 46.7797C6.03963 46.6153 5.6894 46.5331 5.31122 46.5331H4.44799C3.94156 46.5331 3.51077 46.6219 3.15561 46.7995C2.80045 46.9803 2.52915 47.2319 2.34171 47.5542C2.15755 47.8765 2.06547 48.253 2.06547 48.6838C2.06547 48.9633 2.10494 49.2182 2.18386 49.4484C2.26607 49.6786 2.38775 49.8775 2.54888 50.0452C2.71002 50.2129 2.90897 50.3412 3.14575 50.43L2.89418 51.8259C2.48311 51.7141 2.12302 51.5135 1.8139 51.2241C1.50807 50.938 1.26966 50.578 1.09866 50.1439C0.930941 49.7131 0.847085 49.2214 0.847085 48.669ZM1 53.5561H8.5767V54.9817H7.37311V55.0606C7.78089 55.1987 8.10152 55.4421 8.335 55.7906C8.57177 56.1425 8.69016 56.5404 8.69016 56.9844C8.69016 57.0764 8.68687 57.185 8.68029 57.3099C8.67372 57.4382 8.66549 57.5385 8.65563 57.6108H7.24486C7.2613 57.5516 7.27939 57.4464 7.29912 57.2951C7.32214 57.1439 7.33365 56.9926 7.33365 56.8413C7.33365 56.4927 7.25966 56.182 7.11168 55.909C6.96698 55.6394 6.76474 55.4256 6.50495 55.2678C6.24845 55.1099 5.95577 55.031 5.62692 55.031H1V53.5561ZM8.5767 65.5994L1 62.8519V61.2734L8.5767 58.5209V60.1043L2.74619 62.0232V62.1021L8.5767 64.016V65.5994ZM1 66.9855H8.5767V68.4604H1V66.9855ZM9.74577 67.7304C9.74577 67.4739 9.83127 67.2535 10.0023 67.0694C10.1766 66.8885 10.3837 66.7981 10.6238 66.7981C10.8671 66.7981 11.0743 66.8885 11.2453 67.0694C11.4196 67.2535 11.5068 67.4739 11.5068 67.7304C11.5068 67.9869 11.4196 68.2056 11.2453 68.3864C11.0743 68.5706 10.8671 68.6627 10.6238 68.6627C10.3837 68.6627 10.1766 68.5706 10.0023 68.3864C9.83127 68.2056 9.74577 67.9869 9.74577 67.7304ZM0.847085 73.6361C0.847085 72.9028 1.01315 72.2714 1.34529 71.7419C1.68072 71.2158 2.14275 70.8113 2.7314 70.5285C3.32004 70.2457 3.99418 70.1042 4.75382 70.1042C5.52333 70.1042 6.20241 70.2489 6.79105 70.5383C7.38298 70.8277 7.84501 71.2355 8.17715 71.7617C8.50929 72.2878 8.67536 72.9077 8.67536 73.6213C8.67536 74.1968 8.56848 74.7098 8.35473 75.1603C8.14427 75.6108 7.8483 75.9742 7.46684 76.2505C7.08537 76.53 6.63978 76.696 6.13006 76.7487V75.3132C6.48522 75.2343 6.79105 75.0534 7.04755 74.7706C7.30406 74.4911 7.43231 74.1162 7.43231 73.646C7.43231 73.2349 7.32379 72.8748 7.10675 72.5657C6.89299 72.2599 6.58716 72.0214 6.18925 71.8504C5.79463 71.6794 5.32767 71.5939 4.78835 71.5939C4.23588 71.5939 3.75905 71.6778 3.35785 71.8455C2.95666 72.0132 2.64589 72.25 2.42556 72.5558C2.20524 72.8649 2.09507 73.2283 2.09507 73.646C2.09507 73.9255 2.14604 74.1787 2.24799 74.4056C2.35322 74.6358 2.50284 74.8282 2.69687 74.9827C2.89089 75.1406 3.12437 75.2508 3.39732 75.3132V76.7487C2.90733 76.696 2.46996 76.5366 2.08521 76.2702C1.70045 76.0038 1.39791 75.647 1.17758 75.1998C0.957249 74.7558 0.847085 74.2346 0.847085 73.6361ZM0.847085 81.5914C0.847085 80.8449 1.00658 80.202 1.32556 79.6627C1.64783 79.1267 2.1 78.7123 2.68207 78.4196C3.26742 78.1302 3.95307 77.9855 4.73903 77.9855C5.51511 77.9855 6.19912 78.1302 6.79105 78.4196C7.38298 78.7123 7.84501 79.1201 8.17715 79.643C8.50929 80.1691 8.67536 80.7841 8.67536 81.4878C8.67536 81.9153 8.60466 82.3297 8.46325 82.7309C8.32185 83.1321 8.09987 83.4921 7.79733 83.8111C7.49479 84.1301 7.10181 84.3817 6.6184 84.5658C6.13828 84.75 5.55457 84.8421 4.86728 84.8421H4.3444V78.8192H5.44934V83.3968C5.83738 83.3968 6.18103 83.3179 6.48029 83.16C6.78283 83.0022 7.02124 82.7802 7.19553 82.4941C7.36983 82.2113 7.45697 81.8791 7.45697 81.4977C7.45697 81.0833 7.35503 80.7216 7.15114 80.4125C6.95054 80.1066 6.68746 79.8699 6.3619 79.7021C6.03963 79.5377 5.6894 79.4555 5.31122 79.4555H4.44799C3.94156 79.4555 3.51077 79.5443 3.15561 79.7219C2.80045 79.9027 2.52915 80.1543 2.34171 80.4766C2.15755 80.7989 2.06547 81.1754 2.06547 81.6062C2.06547 81.8857 2.10494 82.1406 2.18386 82.3708C2.26607 82.601 2.38775 82.7999 2.54888 82.9676C2.71002 83.1353 2.90897 83.2636 3.14575 83.3524L2.89418 84.7484C2.48311 84.6365 2.12302 84.4359 1.8139 84.1466C1.50807 83.8605 1.26966 83.5004 1.09866 83.0663C0.930941 82.6355 0.847085 82.1439 0.847085 81.5914ZM6.72692 92.1561L6.49015 90.8193C6.66115 90.7634 6.82393 90.6746 6.97849 90.553C7.13305 90.4346 7.25966 90.2734 7.35832 90.0696C7.45697 89.8657 7.5063 89.6108 7.5063 89.305C7.5063 88.8873 7.41258 88.5388 7.22513 88.2592C7.04098 87.9797 6.80256 87.84 6.50988 87.84C6.25667 87.84 6.05278 87.9337 5.89822 88.1211C5.74366 88.3086 5.61705 88.6111 5.5184 89.0287L5.24217 90.2323C5.08103 90.9295 4.83275 91.4491 4.49732 91.7911C4.16189 92.1331 3.72617 92.3041 3.19014 92.3041C2.73633 92.3041 2.33184 92.1726 1.97668 91.9095C1.62482 91.6497 1.34858 91.2863 1.14798 90.8193C0.947384 90.3557 0.847085 89.818 0.847085 89.2063C0.847085 88.3579 1.02795 87.6657 1.38969 87.1296C1.75471 86.5936 2.27265 86.2648 2.9435 86.1431L3.16054 87.5687C2.78894 87.6574 2.50778 87.84 2.31704 88.1162C2.1296 88.3924 2.03588 88.7525 2.03588 89.1965C2.03588 89.6799 2.13618 90.0663 2.33678 90.3557C2.54066 90.645 2.78894 90.7897 3.08162 90.7897C3.31839 90.7897 3.51735 90.7009 3.67848 90.5234C3.83962 90.3491 3.96129 90.0811 4.04351 89.7193L4.32467 88.4368C4.48581 87.7298 4.74231 87.2069 5.09418 86.8682C5.44605 86.5328 5.89164 86.3651 6.43096 86.3651C6.87819 86.3651 7.26953 86.49 7.60495 86.7399C7.94038 86.9899 8.20182 87.3352 8.38926 87.7758C8.57999 88.2165 8.67536 88.7213 8.67536 89.2902C8.67536 90.109 8.49778 90.7536 8.14262 91.2238C7.79075 91.6941 7.31885 92.0048 6.72692 92.1561Z" fill="#94C99D"/>
</svg>
