<svg width="587" height="883" viewBox="0 0 587 883" fill="none" xmlns="http://www.w3.org/2000/svg">
<rect width="587" height="883" fill="white"/>
<g clip-path="url(#clip0_73_1608)">
<path d="M462.034 351.597L450.83 373.621L443.533 391.465L446.204 398.378L455.906 394.902L462.034 351.597Z" fill="#75A777"/>
<path d="M475.463 429.384V440.536L463.85 488.87L466.75 539.064L459.493 540.923L447.879 479.577L448.322 461.528L453.684 424.718L475.463 429.384Z" fill="#6B717E"/>
<path d="M460.446 539.969L454.904 547.479L456.506 551.283L467.94 544.259L465.835 538.693L460.446 539.969Z" fill="#3C3C3C"/>
<path d="M478.018 543.397L471.187 548.894L471.993 553.095L484.436 549.948L483.484 543.887L478.018 543.397Z" fill="#3C3C3C"/>
<path d="M461.998 351.537L479.277 342.76C479.277 342.76 485.419 362.289 492.4 393.576C499.381 424.863 489.159 464.684 489.159 464.684C489.159 464.684 449.574 452.636 441.671 450.653L451.586 393.465L461.998 351.537Z" fill="#75A777"/>
<path d="M466.248 442.592L477.918 544.834H483.224L486.574 489.062L493.832 433.294L466.248 442.592Z" fill="#6B717E"/>
<path d="M461.425 320.847C466.128 321.29 470.527 316.343 475.157 317.571C478.168 318.369 480.546 321.789 481.462 325.645C481.892 327.44 482.041 329.398 481.622 331.185C481.349 332.345 480.849 333.39 480.256 334.315C479.467 335.556 478.501 336.588 477.429 337.377C478.018 338.593 478.691 339.74 479.444 340.798C477.275 341.86 475.104 342.926 472.936 343.988C472.456 342.393 471.976 340.793 471.497 339.198C470.844 339.151 470.194 339.032 469.558 338.823C465.705 337.544 462.514 333.223 461.655 328.131C461.255 325.747 461.332 323.278 461.425 320.847Z" fill="#D3C4A9"/>
<path d="M462.614 322.663L477.159 320.45L479.983 334.678L484.09 330.502L481.975 307.22L461.445 306.657L452.555 313.332L452.932 320.023L460.882 326.877L462.614 322.663Z" fill="#534741"/>
<path d="M468.259 346.193L485.539 337.416C485.539 337.416 491.68 356.944 498.661 388.232C505.642 419.519 495.421 459.34 495.421 459.34C495.421 459.34 460.013 436.937 452.109 434.949L457.848 388.121L468.259 346.193Z" fill="white"/>
<path d="M498.921 388.902C491.94 357.614 485.895 338.051 485.895 338.051L468.522 346.863L468.496 346.973C468.879 348.253 469.279 349.524 469.625 350.82C470.994 355.934 472.006 361.201 472.626 366.549C473.718 375.949 473.831 385.613 473.598 395.103C473.372 404.204 472.639 413.288 471.377 422.253C469.708 434.101 467.044 445.646 463.616 456.82C479.687 461 498.601 465.947 498.601 465.947C498.601 465.947 505.902 420.185 498.921 388.902Z" fill="#75A777"/>
<path d="M484.436 343.591L498.192 332.673L495.637 302.695L501.736 299.671L511.767 333.931L509.799 339.476L490.944 362.775L484.436 343.591Z" fill="#75A777"/>
<path d="M452.689 380.257L454.411 354.113H446.047L439.653 390.023L444.079 401.044L451.2 396.591L452.689 380.257Z" fill="#75A777"/>
<path d="M447.03 354.113V345.297L452.196 342.777L456.869 347.502V351.597L453.425 354.113H447.03Z" fill="#D3C4A9"/>
<path d="M501.443 299.676L502.445 288.766L493.186 283.704L491.467 288.74L495.827 296.946L496.883 301.936L501.443 299.676Z" fill="#D3C4A9"/>
<path d="M104.668 544.165L104.291 548.609L110.856 554.017L114.703 550.05L111.605 545.129L105.041 539.725L104.668 544.165Z" fill="#454446"/>
<path d="M120.418 543.086L120.042 547.53L126.606 552.938L130.453 548.971L127.359 544.05L120.791 538.646L120.418 543.086Z" fill="#454446"/>
<path d="M92.3276 458.232L99.3252 498.036L103.628 544.903L111.662 543.939L114.926 430.165L93.4167 430.664L92.3276 458.232Z" fill="#5A5753"/>
<path d="M133.514 455.801L134.417 494.436L128.415 543.939L120.042 542.817L118.893 491.656L112.921 456.59L110.916 433.636L128.825 430.928L133.514 455.801Z" fill="#5A5753"/>
<path d="M119.346 351.857L100.051 351.268L88.8637 377.907L92.8405 402.86L93.5499 432.719L121.071 433.201L134.417 430.429L130.127 397.154L129.101 356.791L119.346 351.857Z" fill="#CACCCD"/>
<path d="M98.1928 415.34L98.0862 419.507L103.832 422.185L107.142 418.974V414.12L103.948 413.894L103.848 412.828L102.799 411.966L98.1928 415.34Z" fill="#8A7B5B"/>
<path d="M99.4118 353.102L78.0425 384.581L77 398.37L98.0762 419.673L101.857 412.666L88.2276 394.032L101.434 377.476L99.4118 353.102Z" fill="#CACCCD"/>
<path d="M118.137 331.155C115.229 320.326 104.065 324.387 101.763 334.025C100.261 340.316 104.055 348.475 109.144 350.283C109.167 350.53 109.184 350.761 109.184 350.957C109.187 351.968 109.284 352.961 109.4 353.972C109.444 354.347 113.897 353.251 114.393 353.128C114.566 353.085 114.759 353.025 114.853 352.838C115.033 352.479 114.739 351.426 114.706 351.025C114.666 350.556 114.63 350.087 114.59 349.618C117.101 348.048 118.683 344.709 119.126 341.305C119.579 337.889 119.013 334.409 118.137 331.155Z" fill="#8A7B5B"/>
<path d="M105.76 351.716L111.745 362.549L114.56 362.254L119.249 351.268L105.76 351.716Z" fill="#ECECEC"/>
<path d="M131.323 323.461C131.656 322.727 132.019 322.015 132.422 321.35C133.301 319.904 134.39 318.654 135.093 317.059C135.792 315.46 136.015 313.315 135.123 311.882C134.547 310.956 133.627 310.513 132.738 310.201C129.804 309.178 126.653 309.182 123.719 310.219C120.924 311.208 118.436 312.786 115.589 311.507C112.914 310.304 111.002 310.871 108.248 312.21C105.267 313.66 101.24 314.087 98.5525 316.096C97.4301 316.936 96.5441 318.219 95.8614 319.635C93.4899 324.536 93.5832 331.206 96.0845 336C96.6474 337.075 97.3135 338.055 98.0129 338.985C99.4618 340.917 101.194 343.301 103.155 343.984C103.165 341.749 101.467 334.75 102.779 332.886C104.857 329.927 109.68 330.818 112.328 331.466C115.216 332.17 117.82 334.712 120.678 335.198C122.736 335.548 125.334 334.191 127.056 332.788C129.181 331.053 130.104 326.139 131.323 323.461Z" fill="url(#paint0_linear_73_1608)"/>
<path d="M151.649 307.847L151.376 298.776L148.342 298.754L146.024 304.162L146.997 311.89L150.147 312.453L151.649 307.847Z" fill="#8A7B5B"/>
<path d="M119.249 351.268L140.752 336.371L146.997 311.89L151.207 312.219L153.451 340.554L127.509 377.966L119.249 351.268Z" fill="#CACCCD"/>
<path d="M251.062 328.183L250.12 322.502L254.792 313.14C254.792 313.14 257.357 313.571 257.983 313.11C258.609 312.65 260.851 320.634 260.851 320.634L256.391 326.016L251.062 328.183Z" fill="#D2C3A8"/>
<path d="M224.244 350.535L236.677 354.774L249.946 320.604L256.008 326.898L248.661 367.799L242.239 375.834L221.007 371.066L224.244 350.535Z" fill="#4A5367"/>
<path d="M236.86 412.58L237.377 469.939L232.604 543.777H226.112L218.345 475.654L209.466 407.416L236.86 412.58Z" fill="#919395"/>
<path d="M226.149 547.279L233.17 551.774L236.677 547.279L233.17 542.788H226.149V547.279Z" fill="#3B3631"/>
<path d="M192.36 412.58L192.233 445.765L196.61 543.777H203.101L213.959 478.733L219.754 407.416L192.36 412.58Z" fill="#919395"/>
<path d="M203.061 547.279L196.044 551.774L192.533 547.279L196.044 542.788H203.061V547.279Z" fill="#3B3631"/>
<path d="M185.609 432.562C185.469 437.824 185.559 444.87 187.291 445.13C187.614 445.181 187.927 444.994 188.213 444.819C191.224 442.947 193.369 440.298 196.337 438.49C199.447 436.592 202.981 435.602 206.435 434.916C211.588 433.862 216.823 433.231 222.009 433.171C226.466 433.12 231.098 435.726 235.312 437.155C236.934 437.705 238.253 439.219 239.598 440.405C241.587 442.158 242.459 442.853 242.189 439.27C241.746 433.427 241.287 427.584 240.724 421.754C239.605 410.128 238.079 398.532 235.502 387.281C234.516 382.982 233.38 378.743 232.244 374.508C230.862 369.347 229.476 364.187 228.094 359.026C226.376 352.612 223.471 348.095 218.389 345.852C213.996 343.911 208.54 343.383 204.267 346.095C199.517 349.11 197.259 359.389 194.951 364.882C192.929 369.697 190.381 382.82 189.625 388.01C188.716 394.254 187.873 400.472 187.211 406.669C186.478 413.536 185.958 420.381 185.808 427.188C185.795 427.943 185.675 430.045 185.609 432.562Z" fill="#4A5367"/>
<path d="M209.07 347.003L217.839 347.11C217.839 347.11 227.252 389.226 227.598 396.485C227.938 403.611 230.316 432.506 230.316 432.506C230.316 432.506 220.604 432.8 209.409 434.545C198.468 437.543 197.549 435.769 197.549 435.769C197.549 435.769 203.454 405.398 203.651 396.672C203.851 387.746 204.743 358.271 204.743 358.271L209.07 347.003Z" fill="white"/>
<path d="M214.389 347.221C214.285 347.336 214.166 347.426 214.029 347.485C213.756 347.601 213.459 347.558 213.176 347.515C212.017 347.34 210.855 347.166 209.696 346.986C210.079 342.436 208.001 341.408 205.979 338.482C203.927 335.514 204.56 331.518 204.673 327.884C204.707 326.873 204.743 325.833 205.08 324.916C205.666 323.308 207.028 322.416 208.354 321.892C211.734 320.548 215.598 320.877 218.572 323.329C219.365 323.982 220.104 324.801 220.534 325.875C221.197 327.53 221.027 329.505 220.844 331.351C220.56 334.188 219.904 336.973 218.652 339.361C217.486 341.587 215.261 342.653 215.005 345.323C214.938 346.014 214.775 346.79 214.389 347.221Z" fill="#D2C3A8"/>
<path d="M220.743 328.059C220.547 329.202 220.131 330.357 220.347 331.496C221.766 330.878 222.692 329.022 223.195 327.133C223.421 326.276 223.588 325.372 223.531 324.463C223.475 323.559 223.168 322.646 222.609 322.135C221.829 321.422 220.43 321.7 220.211 322.996C219.984 324.301 221.04 326.336 220.743 328.059Z" fill="#2B292A"/>
<path d="M228.274 318.015C228.241 316.646 227.834 315.422 226.879 314.595C226.056 313.882 225.103 313.289 224.604 312.159C224.214 311.281 224.157 310.193 223.774 309.31C223.078 307.711 221.563 307.242 220.247 306.7C216.953 305.344 215.181 303.783 211.691 305.515C209.21 306.747 206.005 306.913 203.704 308.709C202.741 309.46 201.925 310.667 201.253 312.01C198.928 316.667 198.368 323.214 199.884 328.067C200.224 329.155 200.653 330.153 201.113 331.112C202.035 333.027 203.021 335.382 204.65 336.32C204.753 335.42 205.276 334.921 205.443 334.034C205.559 333.394 205.523 332.729 205.496 332.072C205.396 329.517 204.783 325.483 206.775 324.216C209.293 322.617 214.016 324.058 216.44 325.415C218.585 326.613 222.209 328.174 224.497 326.89C226.619 325.696 228.344 320.941 228.274 318.015Z" fill="#2B292A"/>
<path d="M327.979 527.071C357.477 489.299 357.477 428.058 327.979 390.285C298.481 352.513 250.655 352.513 221.156 390.285C191.658 428.058 191.658 489.299 221.156 527.071C250.655 564.844 298.481 564.844 327.979 527.071Z" fill="#375B80"/>
<path d="M329.395 429.017C326.398 419.941 322.108 411.796 316.646 404.797C311.18 397.802 304.819 392.305 297.731 388.471C290.394 384.496 282.6 382.483 274.566 382.483C266.533 382.483 258.743 384.496 251.402 388.471C244.314 392.309 237.953 397.802 232.487 404.797C227.025 411.791 222.732 419.941 219.738 429.017C216.633 438.413 215.061 448.393 215.061 458.679C215.061 468.966 216.633 478.942 219.738 488.342C222.735 497.417 227.025 505.563 232.487 512.562C237.953 519.557 244.314 525.054 251.402 528.888C258.739 532.863 266.533 534.876 274.566 534.876C282.6 534.876 290.39 532.859 297.731 528.888C304.819 525.05 311.18 519.557 316.646 512.562C322.108 505.568 326.401 497.417 329.395 488.342C332.5 478.946 334.072 468.966 334.072 458.679C334.075 448.393 332.5 438.413 329.395 429.017ZM245.647 456.329C245.647 450.363 246.18 444.524 247.229 438.861H271.576V475.104H247.422C246.243 468.932 245.647 462.654 245.647 456.329ZM289.511 406.23C293.808 412.666 297.231 419.673 299.679 427.06C300.132 428.42 300.545 429.798 300.932 431.188H277.564V392.1C280.368 394.68 284.935 399.38 289.511 406.23ZM271.576 392.851V431.188H248.997C249.367 429.853 249.767 428.527 250.196 427.217C252.624 419.852 256.015 412.862 260.278 406.439C264.471 400.122 268.705 395.589 271.576 392.851ZM271.576 482.772V523.915C268.728 520.751 264.618 515.693 260.508 508.916C256.181 501.78 252.734 494.202 250.27 486.393C249.89 485.19 249.533 483.983 249.2 482.772H271.576ZM277.564 524.772V482.768H300.729C300.409 483.932 300.069 485.092 299.706 486.248C297.261 494.035 293.841 501.593 289.544 508.715C285.011 516.226 280.438 521.668 277.564 524.772ZM277.564 475.104V438.861H302.704C303.753 444.524 304.286 450.363 304.286 456.329C304.286 462.654 303.69 468.937 302.514 475.104H277.564ZM308.839 438.861H325.822C327.31 445.207 328.083 451.868 328.083 458.679C328.083 464.288 327.557 469.794 326.541 475.104H308.656C309.728 468.928 310.268 462.65 310.268 456.329C310.271 450.38 309.788 444.541 308.839 438.861ZM312.412 410.222C317.209 416.363 320.979 423.469 323.623 431.192H307.253C306.654 428.783 305.971 426.407 305.195 424.066C302.507 415.954 298.76 408.277 294.064 401.248C291.636 397.61 289.211 394.535 287.003 392.006C296.545 394.898 305.302 401.12 312.412 410.222ZM236.727 410.222C244.098 400.784 253.244 394.442 263.196 391.695C260.918 394.284 258.393 397.461 255.865 401.244C251.169 408.277 247.425 415.954 244.734 424.061C243.958 426.398 243.275 428.778 242.676 431.188H225.513C228.161 423.464 231.931 416.363 236.727 410.222ZM223.315 438.861H241.09C240.141 444.546 239.658 450.384 239.658 456.329C239.658 462.65 240.198 468.928 241.27 475.104H222.592C221.576 469.794 221.05 464.288 221.05 458.679C221.053 451.864 221.826 445.202 223.315 438.861ZM236.727 507.133C231.235 500.1 227.088 491.809 224.444 482.768H242.892C243.435 484.951 244.041 487.118 244.721 489.263C247.395 497.729 251.116 505.922 255.782 513.615C258.829 518.64 261.867 522.776 264.475 525.988C254.023 523.45 244.411 516.976 236.727 507.133ZM312.412 507.133C304.975 516.656 295.729 523.028 285.667 525.732C288.225 522.559 291.186 518.507 294.151 513.615C298.817 505.922 302.537 497.729 305.212 489.263C305.891 487.113 306.497 484.947 307.04 482.768H324.696C322.048 491.809 317.901 500.104 312.412 507.133Z" fill="white"/>
<path d="M205.026 416.551L202.995 419.843L206.395 426.411L210.575 426.343L212.843 422.419L210.362 419.788L210.778 418.845L210.335 417.348L205.026 416.551Z" fill="#D2C3A8"/>
<path d="M201.855 348.462L185.565 361.184L176.546 382.871L178.914 399.995L203.324 421.652L207.92 416.508L191.597 390.092L192.233 373.394L201.855 348.462Z" fill="#4A5367"/>
<path d="M353.09 369.786L349.409 366.392L340.836 368.089C340.836 368.089 340.11 371.271 339.527 371.817C338.944 372.362 343.174 374.572 343.174 374.572L349.393 375.16L353.09 369.786Z" fill="#E1CFB5"/>
<path d="M400.714 538.032C401.314 537.188 402.017 536.723 402.806 536.885C403.565 537.039 404.248 537.7 404.565 538.578C404.778 539.18 404.824 539.849 404.864 540.506C405.084 543.901 405.064 551.966 401.53 553.13C400.045 553.616 398.816 552.268 398.419 550.558C397.823 547.987 398.709 540.86 400.714 538.032Z" fill="#6E6659"/>
<path d="M399.459 486.785L399.645 507.504C399.429 516.708 400.551 525.962 400.338 535.166C400.288 537.281 399.858 539.516 400.275 541.61C400.681 543.662 401.983 544.024 403.319 542.988C405.111 541.598 404.821 538.343 405.117 535.972C405.937 529.455 406.899 522.968 407.752 516.46C408.172 513.27 407.306 508.796 407.495 505.568L410.11 488.205L399.459 486.785Z" fill="#E1CEB4"/>
<path d="M417.947 453.31L410.903 493.366L409.407 531.195L398.243 530.871L395.205 425.063L416.851 425.567L417.947 453.31Z" fill="#A79D88"/>
<path d="M384.744 537.277C385.37 536.475 386.083 536.066 386.866 536.287C387.618 536.496 388.278 537.209 388.561 538.117C388.754 538.735 388.777 539.409 388.797 540.07C388.904 543.486 388.614 551.556 385.054 552.451C383.558 552.827 382.379 551.381 382.039 549.645C381.53 547.022 382.649 539.955 384.744 537.277Z" fill="#6E6659"/>
<path d="M390.629 489.693L389.683 510.378C389.607 516.127 389.007 521.829 388.544 527.54C388.111 532.846 388.784 538.369 386.619 543.192C385.94 544.706 384.567 545.713 383.608 543.875C382.869 542.459 383.308 540.096 383.165 538.488C382.586 531.929 381.866 525.39 381.25 518.84C380.947 515.628 381.976 511.21 381.906 507.973L379.934 490.474L390.629 489.693Z" fill="#E1CEB4"/>
<path d="M376.497 450.857L375.591 489.745L380.354 529.063L391.715 529.498L391.212 486.943L397.224 451.655L399.242 428.552L381.217 425.831L376.497 450.857Z" fill="#A79D88"/>
<path d="M390.756 346.252L410.173 345.66L421.431 372.469L417.431 397.58L416.718 427.635L389.02 428.117L379.908 426.223L382.326 394.113L380.94 351.221L390.756 346.252Z" fill="#454446"/>
<path d="M410.816 347.511L426.58 378.252L424.212 395.376L399.798 417.033L395.205 411.889L411.526 385.468L410.893 368.775L410.816 347.511Z" fill="#454446"/>
<path d="M389.786 362.498L379.671 388.39L368.767 391.166L346.282 374.597L350.968 367.79L371.062 374.972L380.94 351.221L389.786 362.498Z" fill="#454446"/>
<path d="M391.971 325.423C394.899 314.526 406.133 318.607 408.448 328.314C409.96 334.643 406.14 342.858 401.021 344.674C400.997 344.922 400.981 345.156 400.981 345.353C400.977 346.368 400.881 347.37 400.761 348.385C400.718 348.764 396.235 347.66 395.735 347.536C395.558 347.494 395.365 347.43 395.272 347.242C395.092 346.879 395.385 345.822 395.419 345.421C395.459 344.947 395.495 344.474 395.535 344.001C393.007 342.423 391.415 339.058 390.969 335.633C390.522 332.195 391.092 328.698 391.971 325.423Z" fill="#E1CEB4"/>
<path d="M399.302 315.575C399.905 316.36 400.141 317.452 400.315 318.501C400.418 319.128 400.508 319.776 400.404 320.395C399.988 322.868 398.07 322.74 396.591 323.538C394.762 324.523 393.187 326.332 392.165 328.417C390.562 331.684 391.282 335.885 391.931 339.484C392.161 340.755 392.621 342.64 391.851 343.771C391.069 344.922 389.264 344.743 388.331 344.15C387.475 343.609 386.776 342.611 385.836 342.41C384.844 342.197 383.502 342.756 383.039 341.591C382.909 341.267 382.899 340.871 382.735 340.572C382.186 339.565 380.82 340.743 380.048 340.035C379.571 339.6 379.575 338.67 379.735 337.936C379.894 337.203 380.168 336.456 380.054 335.71C379.958 335.066 379.595 334.558 379.372 333.974C378.929 332.818 379.082 331.317 379.741 330.341C380.964 328.528 383.332 328.873 384.641 327.167C385.323 326.28 385.587 324.997 385.843 323.785C386.096 322.574 386.403 321.295 387.132 320.472C388.035 319.457 389.337 319.627 390.226 318.424C390.749 317.716 391.099 316.795 391.685 316.181C392.458 315.371 393.97 314.748 394.932 314.334C396.454 313.673 398.163 314.091 399.302 315.575Z" fill="#A68044"/>
<path d="M406.41 332.963C406.463 336.55 405.071 340.427 406.36 343.583C407.662 346.769 410.909 347.344 413.674 347.511C414.13 347.536 419.969 348.185 419.992 348.044C420.428 345.545 420.881 342.998 421.9 340.802C422.92 338.61 424.625 336.789 426.577 336.635C426.014 336.512 425.731 335.629 425.794 334.882C425.861 334.136 426.16 333.466 426.333 332.75C426.76 330.993 426.344 328.941 425.311 327.705C423.246 325.239 419.502 326.263 417.73 323.431C416.631 321.674 416.765 319.128 416.188 316.987C415.076 312.841 411.532 311.976 408.884 310.103C406.09 308.129 403.455 307.045 400.228 307.732C396.228 308.585 393.254 313.801 394.796 318.71C396.774 325.005 404.684 324.459 406.167 330.852C406.33 331.543 406.4 332.247 406.41 332.963Z" fill="#A68044"/>
<path d="M404.428 346.112L398.406 357.013L395.575 356.719L390.856 345.66L404.428 346.112Z" fill="#E0E0E1"/>
<path d="M398.013 411.719L400.358 414.649L397.65 421.72L393.497 422.343L390.856 418.828L393.05 415.809L392.541 414.943L392.831 413.382L398.013 411.719Z" fill="#E1CFB5"/>
<path d="M179.037 283.247L168.886 275.421C168.659 275.246 168.386 275.195 168.129 275.281C167.873 275.366 167.653 275.579 167.52 275.869C166.631 277.827 165.811 279.486 165.082 280.808C164.379 282.083 163.733 283.077 163.167 283.759C162.184 284.941 161.065 285.512 159.75 285.512C157.848 285.512 154.704 284.39 150.371 282.164C149.568 281.793 148.685 281.384 147.719 280.94C146.767 280.501 145.714 280.032 144.559 279.52C145.491 274.713 145.947 271.344 145.947 269.237C145.947 267.472 145.574 264.631 144.805 260.58H156.312C156.859 260.58 157.302 260.012 157.302 259.313V247.921C157.302 247.222 156.859 246.655 156.312 246.655H140.459C140.435 246.599 140.412 246.548 140.392 246.501C140.295 246.279 140.209 246.092 140.129 245.938C136.385 237.336 134.487 230.691 134.487 226.187C134.487 220.801 135.786 216.523 138.46 213.098C141.131 209.635 144.455 207.955 148.619 207.955C154.231 207.955 158.048 210.766 160.292 216.557C161.452 219.487 162.041 224.797 162.041 232.342C162.041 232.755 162.201 233.143 162.464 233.382C162.731 233.621 163.07 233.677 163.373 233.532L175.873 227.591C176.26 227.407 176.519 226.934 176.519 226.405C176.519 215.807 173.868 207.042 168.649 200.359C163.453 193.548 156.735 190.106 148.672 190.106C140.665 190.106 133.717 193.51 128.022 200.231C122.38 206.974 119.519 215.257 119.519 224.848C119.519 230.96 121.098 238.287 124.218 246.646H115.925C115.379 246.646 114.936 247.213 114.936 247.913V259.304C114.936 260.004 115.379 260.571 115.925 260.571H129.734C130.746 263.198 131.259 265.919 131.259 268.67C131.259 271.301 130.893 274.274 130.174 277.511C126.407 278.164 123.322 279.699 121.004 282.062C118.889 284.13 116.168 288.608 112.688 295.748C112.541 296.051 112.498 296.417 112.574 296.759C112.648 297.1 112.834 297.386 113.081 297.548L123.999 304.606C124.138 304.696 124.292 304.742 124.445 304.742C124.551 304.742 124.661 304.721 124.765 304.674C125.018 304.563 125.224 304.329 125.337 304.022C126.723 300.298 127.952 297.859 128.998 296.771C129.977 295.752 131.366 295.236 133.125 295.236C135.429 295.236 139.606 296.712 145.574 299.642C151.996 302.461 156.672 303.834 159.869 303.834C164.289 303.834 168.086 302.337 171.154 299.394C174.148 296.575 176.936 291.688 179.434 284.864C179.637 284.28 179.474 283.58 179.037 283.247Z" fill="#DC9C35"/>
<path d="M510.825 304.124C511.265 303.889 511.511 303.288 511.411 302.691L508.783 286.966C508.717 286.574 508.51 286.241 508.224 286.079C507.937 285.913 507.608 285.93 507.335 286.126C506.539 286.698 505.756 287.201 504.966 287.64C502.069 289.444 498.475 290.361 494.288 290.361C485.752 290.361 479.8 287.214 474.388 279.831C472.603 277.396 471.077 274.726 469.842 271.877H491.048C491.594 271.877 492.037 271.31 492.037 270.61V256.506C492.037 255.807 491.594 255.24 491.048 255.24H466.061C465.978 253.909 465.935 252.677 465.935 251.504C465.935 250.058 465.995 248.578 466.125 246.91H491.048C491.594 246.91 492.037 246.343 492.037 245.644V231.531C492.037 230.832 491.594 230.265 491.048 230.265H470.078C471.267 227.586 472.713 225.057 474.395 222.724C479.784 215.154 485.715 211.921 494.232 211.921C497.459 211.921 500.697 212.685 503.854 214.186C504.34 214.416 504.883 214.126 505.096 213.525L510.056 199.596C510.166 199.284 510.176 198.93 510.079 198.611C509.982 198.291 509.789 198.039 509.543 197.903C504.797 195.322 500.72 193.719 495.081 193.719C481.039 193.719 470.541 199.967 462.048 213.38C458.747 218.617 456.186 224.294 454.427 230.26H444.502C443.956 230.26 443.513 230.828 443.513 231.527V245.631C443.513 246.33 443.956 246.898 444.502 246.898H451.616C451.513 248.587 451.463 250.148 451.463 251.632C451.463 252.898 451.506 254.139 451.556 255.227H444.502C443.956 255.227 443.513 255.794 443.513 256.494V270.598C443.513 271.297 443.956 271.864 444.502 271.864H454.111C456.219 279.503 459.583 286.45 464.126 292.532C472.316 303.361 481.849 308.406 494.122 308.406C499.847 308.41 505.466 306.969 510.825 304.124Z" fill="#5773AF"/>
<path d="M271.446 328.059V291.653H294.747C295.293 291.653 295.736 291.086 295.736 290.387V278.923C295.736 278.223 295.293 277.656 294.747 277.656H273.231L277.261 268.376H294.747C295.293 268.376 295.736 267.808 295.736 267.109V255.645C295.736 254.945 295.293 254.378 294.747 254.378H283.266L297.741 220.75C297.911 220.357 297.904 219.88 297.728 219.496C297.551 219.112 297.225 218.873 296.875 218.873H283.066C282.707 218.873 282.373 219.125 282.2 219.53L264.511 260.635L246.979 219.534C246.806 219.129 246.473 218.873 246.113 218.873H232.304C231.954 218.873 231.631 219.108 231.455 219.496C231.278 219.88 231.272 220.357 231.438 220.75L245.863 254.378H234.432C233.886 254.378 233.443 254.945 233.443 255.645V267.109C233.443 267.808 233.886 268.376 234.432 268.376H251.858L255.845 277.656H234.429C233.883 277.656 233.44 278.223 233.44 278.923V290.387C233.44 291.086 233.883 291.653 234.429 291.653H257.62V328.059C257.62 328.758 258.063 329.325 258.609 329.325H270.453C271.003 329.321 271.446 328.758 271.446 328.059Z" fill="#B2274B"/>
<path d="M360.397 298.678C357.692 296.554 354.229 294.26 350.099 291.854C345.476 289.193 342.388 286.886 340.919 285.005C339.504 283.192 338.814 280.97 338.814 278.207C338.814 275.166 339.674 272.701 341.439 270.67C343.238 268.606 345.452 267.604 348.213 267.604C352.687 267.604 356.234 270.803 359.061 277.383C359.188 277.678 359.401 277.895 359.654 277.989C359.907 278.083 360.18 278.04 360.41 277.878L370.342 270.769C370.818 270.427 370.988 269.655 370.722 269.046C368.357 263.616 365.823 259.518 363.188 256.865C360.7 254.357 357.523 252.626 353.736 251.709V239.989C353.736 239.289 353.293 238.722 352.746 238.722H343.834C343.287 238.722 342.845 239.289 342.845 239.989V251.803C340.313 252.72 337.998 253.944 335.953 255.458C333.695 257.129 331.767 259.142 330.225 261.433C328.676 263.731 327.477 266.333 326.661 269.156C325.842 271.98 325.429 275.068 325.429 278.334C325.429 285.231 327.174 291.244 330.598 296.166C332.786 299.518 337.149 303.045 343.93 306.939C347.074 308.782 349.689 310.505 351.701 312.057C353.686 313.592 355.198 314.974 356.177 316.147C358.069 318.531 358.988 321.627 358.988 325.615C358.988 330.123 357.872 333.684 355.574 336.508C353.233 339.386 350.388 340.785 346.888 340.785C343.324 340.785 340.446 339.536 338.368 337.113C336.29 334.452 334.488 329.871 333.016 323.495C332.869 322.864 332.37 322.48 331.867 322.617L320.662 325.615C320.403 325.683 320.176 325.884 320.033 326.169C319.89 326.455 319.843 326.801 319.9 327.133C321.598 336.674 324.29 343.856 327.907 348.488C331.387 352.944 336.41 355.964 342.845 357.461V369.505C342.845 370.204 343.287 370.772 343.834 370.772H352.746C353.293 370.772 353.736 370.204 353.736 369.505V356.966C359.321 354.876 363.874 351 367.275 345.438C370.862 339.587 372.68 332.742 372.68 325.09C372.68 317.277 370.655 310.513 366.675 305.011C365.263 302.977 363.151 300.845 360.397 298.678Z" fill="#55946F"/>
</g>
<defs>
<linearGradient id="paint0_linear_73_1608" x1="94.142" y1="326.712" x2="135.708" y2="326.712" gradientUnits="userSpaceOnUse">
<stop stop-color="#1F1F1F"/>
<stop offset="1"/>
</linearGradient>
<clipPath id="clip0_73_1608">
<rect width="434.768" height="413" fill="white" transform="translate(77 231)"/>
</clipPath>
</defs>
</svg>
