<svg width="53" height="53" viewBox="0 0 53 53" fill="none" xmlns="http://www.w3.org/2000/svg">
<rect x="0.216309" width="52.7027" height="52.7027" rx="25" fill="#E7EBF7"/>
<g clip-path="url(#clip0_12_1607)">
<path d="M32.9351 20.2814C32.6413 19.9877 32.6413 19.5127 32.9351 19.2221C33.2288 18.9314 33.7038 18.9283 33.9944 19.2221L35.9944 21.2221C36.1351 21.3627 36.2132 21.5533 36.2132 21.7533C36.2132 21.9533 36.1351 22.1439 35.9944 22.2846L33.9944 24.2846C33.7007 24.5783 33.2257 24.5783 32.9351 24.2846C32.6444 23.9908 32.6413 23.5158 32.9351 23.2252L33.6538 22.5064L28.2163 22.5002C27.8007 22.5002 27.4663 22.1658 27.4663 21.7502C27.4663 21.3346 27.8007 21.0002 28.2163 21.0002H33.6569L32.9351 20.2814ZM19.4976 30.7814L18.7788 31.5002H24.2163C24.6319 31.5002 24.9663 31.8346 24.9663 32.2502C24.9663 32.6658 24.6319 33.0002 24.2163 33.0002H18.7757L19.4944 33.7189C19.7882 34.0127 19.7882 34.4877 19.4944 34.7783C19.2007 35.0689 18.7257 35.0721 18.4351 34.7783L16.4351 32.7814C16.2944 32.6408 16.2163 32.4502 16.2163 32.2502C16.2163 32.0502 16.2944 31.8596 16.4351 31.7189L18.4351 29.7189C18.7288 29.4252 19.2038 29.4252 19.4944 29.7189C19.7851 30.0127 19.7882 30.4877 19.4944 30.7783L19.4976 30.7814ZM19.2163 21.0002H26.7757C26.6601 21.2252 26.5913 21.4783 26.5913 21.7502C26.5913 22.6471 27.3194 23.3752 28.2163 23.3752H31.8851C31.7601 23.9064 31.9038 24.4846 32.3163 24.9002C32.9507 25.5346 33.9788 25.5346 34.6132 24.9002L35.2163 24.2971V31.0002C35.2163 32.1033 34.3194 33.0002 33.2163 33.0002H25.6569C25.7726 32.7752 25.8413 32.5221 25.8413 32.2502C25.8413 31.3533 25.1132 30.6252 24.2163 30.6252H20.5476C20.6726 30.0939 20.5288 29.5158 20.1163 29.1002C19.4819 28.4658 18.4538 28.4658 17.8194 29.1002L17.2163 29.7033V23.0002C17.2163 21.8971 18.1132 21.0002 19.2163 21.0002ZM21.2163 23.0002H19.2163V25.0002C20.3194 25.0002 21.2163 24.1033 21.2163 23.0002ZM33.2163 29.0002C32.1132 29.0002 31.2163 29.8971 31.2163 31.0002H33.2163V29.0002ZM26.2163 30.0002C27.012 30.0002 27.775 29.6841 28.3376 29.1215C28.9002 28.5589 29.2163 27.7958 29.2163 27.0002C29.2163 26.2045 28.9002 25.4415 28.3376 24.8789C27.775 24.3163 27.012 24.0002 26.2163 24.0002C25.4207 24.0002 24.6576 24.3163 24.095 24.8789C23.5324 25.4415 23.2163 26.2045 23.2163 27.0002C23.2163 27.7958 23.5324 28.5589 24.095 29.1215C24.6576 29.6841 25.4207 30.0002 26.2163 30.0002Z" fill="#015180"/>
</g>
<defs>
<clipPath id="clip0_12_1607">
<rect width="20" height="16" fill="white" transform="translate(16.2163 19)"/>
</clipPath>
</defs>
</svg>
