<svg width="621" height="620" viewBox="0 0 621 620" fill="none" xmlns="http://www.w3.org/2000/svg">
<path d="M317.378 619.531C483.967 619.531 619.014 613.227 619.014 605.45C619.014 597.673 483.967 591.368 317.378 591.368C150.79 591.368 15.7432 597.673 15.7432 605.45C15.7432 613.227 150.79 619.531 317.378 619.531Z" fill="#DFE6FF"/>
<path opacity="0.5" d="M617.724 187.912C637.962 256.428 558.976 402.787 409.779 463.489C260.536 524.191 111.722 499.271 77.3427 407.85C63.3359 370.443 103.603 327.54 94.2224 286.149C87.3111 246.943 -32.1222 174.199 8.35015 87.4336C48.8261 0.61897 261.185 -25.4336 339.891 26.9017C418.646 79.29 445.59 92.7447 464.801 99.7057C492.687 110.905 597.536 119.442 617.724 187.912Z" fill="#D5F0FF"/>
<path d="M308.646 520.147L311.165 528.348L319.369 530.862L311.165 533.383L308.646 541.583L306.127 533.383L297.927 530.862L306.127 528.348L308.646 520.147Z" fill="white"/>
<path fill-rule="evenodd" clip-rule="evenodd" d="M317.8 394.41C319.5 388.479 327.287 386.663 330.436 383.034C332.101 380.662 326.355 379.55 327.467 378.739C329.915 377.142 337.251 379.737 340.362 377.33C344.772 374.217 331.41 372.351 335.636 368.053C337.308 366.166 347.22 372.847 351.595 369.551C354.595 367.295 347.284 364.746 347.776 363.478C348.336 361.701 361.453 366.814 364.379 361.701C365.378 356.921 357.744 359.665 357.117 357.406C356.855 355.257 369.006 355.809 366.381 347.181C362.86 340.11 349.335 355.848 346.812 354.446C344.074 351.964 354.262 346.926 346.037 344.78C337.553 343.93 339.476 357.707 337.028 357.41C333.953 357.813 335.328 350.555 330.655 352.963C326.468 354.998 331.952 363.517 327.992 365.224C325.104 365.479 328.806 357.742 323.319 358.146C317.729 358.815 323.206 371.739 319.245 373.407C317.431 374.554 318.023 365.737 314.505 367.476C310.687 369.923 312.525 379.925 311.537 386.146C313.854 389.205 315.483 391.347 317.8 394.41Z" fill="#65B646"/>
<path fill-rule="evenodd" clip-rule="evenodd" d="M320.637 393.387C318.306 387.676 323.301 381.441 323.531 376.643C323.376 373.75 318.175 376.427 318.544 375.096C319.482 372.334 326.854 369.838 327.811 366.017C329.352 360.851 317.697 367.639 318.356 361.644C318.498 359.131 330.425 358.26 331.824 352.97C332.788 349.337 325.462 351.851 325.072 350.548C324.406 348.809 337.882 344.723 337.025 338.895C334.857 334.523 330.546 341.392 328.657 340.007C327.124 338.481 337.018 331.407 329.614 326.248C322.476 322.863 321.576 343.59 318.724 344.044C315.033 343.789 319.929 333.531 312.132 336.927C304.937 341.498 314.969 351.139 312.865 352.417C310.704 354.634 307.286 348.084 305.107 352.856C303.077 357.049 312.656 360.352 310.591 364.144C308.48 366.131 306.602 357.757 302.546 361.467C298.557 365.447 310.864 372.221 308.777 375.977C308.062 378.003 303.074 370.705 301.384 374.253C299.893 378.53 307.527 385.254 310.598 390.756C314.321 391.733 316.918 392.41 320.637 393.387Z" fill="#65B646"/>
<path fill-rule="evenodd" clip-rule="evenodd" d="M309.426 395.429C309.227 389.265 302.128 385.6 299.96 381.316C298.922 378.607 304.764 378.933 303.885 377.871C301.898 375.729 294.151 376.455 291.721 373.357C288.203 369.264 301.615 370.719 298.565 365.521C297.41 363.28 286.166 367.341 282.73 363.074C280.371 360.157 288.086 359.466 287.916 358.121C287.81 356.259 273.838 358.015 272.248 352.346C272.446 347.467 279.173 351.985 280.342 349.949C281.118 347.931 269.191 345.502 273.853 337.772C278.996 331.775 288.27 350.338 291.055 349.588C294.321 347.849 285.67 340.481 294.172 340.403C302.606 341.646 297.371 354.541 299.819 354.846C302.702 355.993 303.141 348.618 307.088 352.095C310.648 355.087 303.248 362.009 306.677 364.629C309.415 365.585 307.715 357.179 312.933 358.911C318.193 360.922 309.72 372.117 313.163 374.699C314.64 376.256 316.22 367.564 319.206 370.11C322.313 373.413 318.083 382.665 317.524 388.936C314.527 391.343 312.426 393.025 309.426 395.429Z" fill="#65B646"/>
<path fill-rule="evenodd" clip-rule="evenodd" d="M335.831 365.394C326.284 373.098 318.678 381.532 313.864 389.223L317.796 394.406C319.497 388.476 327.283 386.659 330.432 383.03C332.097 380.658 326.351 379.546 327.464 378.735C329.912 377.138 337.248 379.734 340.358 377.326C344.768 374.214 331.406 372.348 335.633 368.049C337.305 366.162 347.216 372.844 351.591 369.547C354.592 367.292 347.28 364.742 347.772 363.475C348.332 361.697 361.45 366.81 364.376 361.697C365.375 356.917 357.741 359.661 357.114 357.403C356.859 355.324 368.202 355.777 366.586 348.016C357.45 350.806 346.455 356.822 335.831 365.394Z" fill="#97CB69"/>
<path fill-rule="evenodd" clip-rule="evenodd" d="M316.868 359.435C314.13 371.392 313.372 382.719 314.339 391.74L320.637 393.387C318.306 387.676 323.301 381.44 323.531 376.643C323.376 373.75 318.175 376.427 318.544 375.095C319.482 372.334 326.854 369.838 327.811 366.017C329.352 360.851 317.697 367.639 318.356 361.644C318.498 359.13 330.425 358.259 331.824 352.97C332.788 349.337 325.462 351.851 325.072 350.548C324.406 348.809 337.882 344.723 337.025 338.895C334.857 334.522 330.545 341.391 328.657 340.007C327.173 338.531 336.366 331.874 330.305 326.775C324.839 334.611 319.918 346.136 316.868 359.435Z" fill="#97CB69"/>
<path fill-rule="evenodd" clip-rule="evenodd" d="M299.025 362.887C306.404 372.691 311.718 382.726 314.506 391.355L309.426 395.426C309.227 389.262 302.128 385.597 299.96 381.313C298.922 378.604 304.764 378.93 303.885 377.868C301.898 375.726 294.151 376.452 291.721 373.354C288.203 369.26 301.615 370.716 298.565 365.518C297.41 363.277 286.166 367.338 282.73 363.071C280.371 360.154 288.086 359.463 287.916 358.118C287.81 356.255 273.838 358.012 272.248 352.343C272.446 347.464 279.173 351.982 280.342 349.946C281.086 347.995 269.981 345.662 273.442 338.534C281.632 343.466 290.821 351.985 299.025 362.887Z" fill="#97CB69"/>
<path fill-rule="evenodd" clip-rule="evenodd" d="M325.647 419.457L334.733 389.254H315.607H296.482L305.568 419.457H316.21H325.647Z" fill="url(#paint0_linear_73_1060)"/>
<path fill-rule="evenodd" clip-rule="evenodd" d="M296.202 386.68H335.013C335.665 386.68 336.199 387.215 336.199 387.866V389.265C336.199 389.923 335.665 390.451 335.013 390.451H296.202C295.543 390.451 295.015 389.923 295.015 389.265V387.866C295.015 387.215 295.543 386.68 296.202 386.68Z" fill="url(#paint1_linear_73_1060)"/>
<path fill-rule="evenodd" clip-rule="evenodd" d="M153.051 54.1191H477.652C479.845 54.1191 481.655 55.9072 481.655 58.1201V323.641C481.655 325.858 479.845 327.667 477.652 327.667H153.051C150.859 327.667 149.045 325.858 149.045 323.641V58.1201C149.045 55.9072 150.855 54.1191 153.051 54.1191Z" fill="#84B2FE"/>
<path fill-rule="evenodd" clip-rule="evenodd" d="M157.104 50.6035H481.705C483.898 50.6035 485.711 52.3916 485.711 54.6045V320.126C485.711 322.342 483.901 324.152 481.705 324.152H157.104C154.911 324.152 153.101 322.342 153.101 320.126V54.6045C153.098 52.3916 154.911 50.6035 157.104 50.6035Z" fill="white"/>
<path fill-rule="evenodd" clip-rule="evenodd" d="M157.104 50.6035H481.705C483.898 50.6035 485.711 52.3916 485.711 54.6045V85.9115H153.097V54.6045C153.097 52.3916 154.911 50.6035 157.104 50.6035Z" fill="#004F94"/>
<path fill-rule="evenodd" clip-rule="evenodd" d="M173.29 73.5967C176.843 73.5967 179.751 70.6898 179.751 67.1384C179.751 63.5871 176.843 60.6802 173.29 60.6802C169.715 60.6802 166.828 63.5871 166.828 67.1384C166.828 70.6898 169.715 73.5967 173.29 73.5967Z" fill="#DD4A71"/>
<path fill-rule="evenodd" clip-rule="evenodd" d="M189.571 73.5967C193.145 73.5967 196.032 70.6898 196.032 67.1384C196.032 63.5871 193.148 60.6802 189.571 60.6802C186.017 60.6802 183.109 63.5871 183.109 67.1384C183.113 70.6898 186.021 73.5967 189.571 73.5967Z" fill="#FEB542"/>
<path fill-rule="evenodd" clip-rule="evenodd" d="M206.163 73.5967C209.717 73.5967 212.625 70.6898 212.625 67.1384C212.625 63.5871 209.717 60.6802 206.163 60.6802C202.61 60.6802 199.702 63.5871 199.702 67.1384C199.702 70.6898 202.61 73.5967 206.163 73.5967Z" fill="#62CBEC"/>
<path d="M458.527 131.81H176.23V106.49H458.527V131.81ZM176.623 131.502H458.133V106.795H176.623V131.502Z" fill="#DBCDE4"/>
<path d="M458.527 156.779H176.23V131.459H458.527V156.779ZM176.623 156.471H458.133V131.767H176.623V156.471Z" fill="#DBCDE4"/>
<path d="M458.527 181.904H176.23V156.584H458.527V181.904ZM176.623 181.596H458.133V156.892H176.623V181.596Z" fill="#DBCDE4"/>
<path d="M458.527 206.887H176.23V181.567H458.527V206.887ZM176.623 206.579H458.133V181.875H176.623V206.579Z" fill="#DBCDE4"/>
<path d="M458.527 232.012H176.23V206.692H458.527V232.012ZM176.623 231.707H458.133V207.003H176.623V231.707Z" fill="#DBCDE4"/>
<path d="M458.527 256.981H176.23V231.661H458.527V256.981ZM176.623 256.676H458.133V231.969H176.623V256.676Z" fill="#DBCDE4"/>
<path d="M458.527 282.119H176.23V256.8H458.527V282.119ZM176.623 281.815H458.133V257.111H176.623V281.815Z" fill="#DBCDE4"/>
<path d="M458.527 307.089H176.23V281.77H458.527V307.089ZM176.623 306.785H458.133V282.081H176.623V306.785Z" fill="#DBCDE4"/>
<path d="M221.063 316.677H188.543V96.9048H221.063V316.677ZM188.937 316.369H220.67V97.2093H188.937V316.369Z" fill="#DBCDE4"/>
<path d="M253.136 316.677H220.616V96.9048H253.136V316.677ZM221.01 316.369H252.743V97.2093H221.01V316.369Z" fill="#DBCDE4"/>
<path d="M285.411 316.677H252.892V96.9048H285.411V316.677ZM253.285 316.369H285.018V97.2093H253.285V316.369Z" fill="#DBCDE4"/>
<path d="M317.502 316.677H284.983V96.9048H317.502V316.677ZM285.376 316.369H317.109V97.2093H285.376V316.369Z" fill="#DBCDE4"/>
<path d="M349.774 316.677H317.254V96.9048H349.774V316.677ZM317.647 316.369H349.381V97.2093H317.647V316.369Z" fill="#DBCDE4"/>
<path d="M381.847 316.677H349.328V96.9048H381.847V316.677ZM349.721 316.369H381.454V97.2093H349.721V316.369Z" fill="#DBCDE4"/>
<path d="M414.14 316.677H381.621V96.9048H414.14V316.677ZM382.014 316.369H413.747V97.2093H382.014V316.369Z" fill="#DBCDE4"/>
<path d="M446.213 316.677H413.694V96.9048H446.213V316.677ZM414.083 316.369H445.817V97.2093H414.083V316.369Z" fill="#DBCDE4"/>
<path fill-rule="evenodd" clip-rule="evenodd" d="M326.44 111.182C356.118 109.762 383.172 124.569 401.455 148.837C385.662 133.215 365.258 124.134 343.153 125.323C311.671 126.948 285.479 148.788 272.797 179.404L291.377 178.452L275.726 202.327L260.076 226.202L242.091 203.994L224.198 182.042L244.755 180.965C257.022 141.837 288.337 113.278 326.44 111.182Z" fill="url(#paint2_linear_73_1060)"/>
<path fill-rule="evenodd" clip-rule="evenodd" d="M307.29 305.959C277.593 306.947 250.759 291.744 232.835 267.213C248.223 282.98 268.752 292.271 290.785 291.577C322.288 290.412 348.797 268.959 361.751 238.445L343.334 239.21L359.332 215.569L375.329 191.924L392.815 214.308L410.555 236.604L389.984 237.379C377.15 276.324 345.417 304.423 307.29 305.959Z" fill="#0EBAA0"/>
<path fill-rule="evenodd" clip-rule="evenodd" d="M493.268 566.442C504.2 574.498 499.57 584.953 496.956 601.025L509.347 570.086L493.268 547.974L483.707 554.273L493.268 566.442Z" fill="#7D80BC"/>
<path fill-rule="evenodd" clip-rule="evenodd" d="M504.288 569.785C507.289 585.041 486.155 608.35 496.272 607.837C518.394 585.296 510.204 582.552 511.15 580.495C514.367 582.336 516.722 584.436 519.553 585.767L521.997 583.324C517.966 577.581 512.436 572.054 507.976 566.527C504.072 561.386 502.786 565.369 504.288 569.785Z" fill="#071C3E"/>
<path fill-rule="evenodd" clip-rule="evenodd" d="M476.547 577.412C479.976 590.523 469.774 595.753 457.641 606.594L486.753 590.353L488.124 563.058L476.806 561.942L476.547 577.412Z" fill="#DBCDE4"/>
<path fill-rule="evenodd" clip-rule="evenodd" d="M482.98 586.925C475.736 600.681 444.651 605.567 452.841 611.48C484.224 607.879 479.594 600.596 481.61 599.566C482.938 603.036 483.452 606.166 484.826 608.949L488.255 608.605C488.726 601.577 487.912 593.823 487.912 586.752C488.124 580.283 484.653 582.556 482.98 586.925Z" fill="#1A3763"/>
<path fill-rule="evenodd" clip-rule="evenodd" d="M478.949 435.528L453.525 457.424L445.594 481.465C436.376 504.222 442.636 508.332 449.065 516.947L492.326 567.728C497.342 566.998 501.029 563.787 502.315 558.986L461.372 502.079L488.939 452.626L478.949 435.528Z" fill="#071C3E"/>
<path fill-rule="evenodd" clip-rule="evenodd" d="M471.832 441.699C480.749 445.343 490.87 448.897 499.828 452.541C502.4 468.18 489.966 490.851 485.637 509.964L488.854 577.156C483.965 579.943 479.25 579.557 475.308 578.441L464.677 508.806L471.832 441.699Z" fill="#1A3763"/>
<path fill-rule="evenodd" clip-rule="evenodd" d="M535.2 314.184L533.039 309.567C532.107 306.774 531.214 303.98 530.283 301.187C528.196 295.897 531.625 300.815 534.119 304.054C538.331 300.924 539.932 293.142 543.51 292.919C546.642 293.181 544.477 299.77 543.921 301.077C541.498 307.595 540.195 307.928 536.656 310.945L535.2 314.184Z" fill="#FFCDAD"/>
<path fill-rule="evenodd" clip-rule="evenodd" d="M433.443 313.774L436.387 309.642C437.839 307.071 439.256 304.504 440.709 301.934C443.762 297.129 439.479 301.3 436.387 304.019C432.848 300.184 432.735 292.214 429.27 291.319C426.139 290.982 427.035 297.872 427.297 299.289C428.452 306.14 429.681 306.699 432.589 310.311L433.443 313.774Z" fill="#FFCDAD"/>
<path fill-rule="evenodd" clip-rule="evenodd" d="M474.132 381.588C454.535 363.081 441.307 328.372 438.771 308.186C436.238 308.82 433.741 309.454 431.208 310.084C433.107 334.699 441.938 373.133 466.381 411.975C468.952 401.848 471.56 391.718 474.132 381.588Z" fill="#FC81B1"/>
<path fill-rule="evenodd" clip-rule="evenodd" d="M468.435 351.865C464.815 347.683 465.19 336.119 471.163 334.193C474.174 333.205 467.826 318.777 494.816 322.254C505.914 323.713 496.885 337.107 509.439 343.498C534.456 356.284 516.162 368.081 518.093 380.771C520.304 394.966 503.42 392.803 495.567 398.209C486.069 404.696 470.879 398.163 473.04 383.731C474.829 371.512 472.902 363.521 468.435 351.865Z" fill="#060352"/>
<path fill-rule="evenodd" clip-rule="evenodd" d="M483.484 374.217L473.572 377.793C470.851 379.953 467.015 381.851 466.381 388.78L453.525 457.431C468.949 472.252 486.303 452.138 499.828 452.545C501.915 439.696 503.714 404.458 495.854 384.609C493.321 377.344 487.805 376.303 483.484 374.217Z" fill="#FC81B1"/>
<path fill-rule="evenodd" clip-rule="evenodd" d="M476.144 369.671L486.353 370.974L485.386 378.459C481.549 378.013 470.706 386.95 473.873 377.043L476.144 369.671Z" fill="#F8A780"/>
<path fill-rule="evenodd" clip-rule="evenodd" d="M498.907 356.078L478.379 345.056C472.754 352.729 467.985 369.933 474.132 371.757C488.029 374.738 491.532 370.602 498.907 356.078Z" fill="#FFCDAD"/>
<path fill-rule="evenodd" clip-rule="evenodd" d="M475.697 344.907C475.137 345.353 473.834 353.808 481.323 350.568C485.159 348.894 483.147 354.591 488.85 355.409C494.476 356.266 493.881 359.282 492.835 364.682C490.412 377.007 503.566 371.013 504.497 369.745C508.447 364.345 510.796 358.5 505.503 353.022C504.834 352.314 492.425 347.251 489.222 345.201C484.192 341.996 480.915 340.286 475.959 344.606L475.697 344.907Z" fill="#060352"/>
<path fill-rule="evenodd" clip-rule="evenodd" d="M489.853 363.751C490.671 362.334 491.454 360.957 492.276 359.541C494.586 356.337 497.306 358.273 495.666 360.77C493.356 364.087 492.389 362.933 489.853 363.751Z" fill="#FFCDAD"/>
<path fill-rule="evenodd" clip-rule="evenodd" d="M490.526 379.167C511.391 362.073 527.041 328.408 530.991 308.445C533.45 309.263 535.947 310.046 538.406 310.867C534.792 335.259 523.24 373.024 496.116 410.003C494.253 399.725 492.389 389.446 490.526 379.167Z" fill="#FC81B1"/>
<path d="M483.073 365.426C482.141 368.517 479.534 370.305 477.001 369.409C475.028 368.701 473.611 366.505 473.349 364.009C474.241 365.164 475.474 366.134 476.888 366.615C479.236 367.476 481.581 366.916 483.073 365.426Z" fill="white"/>
<path fill-rule="evenodd" clip-rule="evenodd" d="M463.734 194.948C461.446 200.312 451.991 204.709 450.539 213.239C449.044 221.811 451.683 229.99 456.83 234.958C463.341 232.012 468.573 225.196 470.072 216.624C471.521 208.048 468.882 199.915 463.734 194.948Z" fill="#A5CA39"/>
<path d="M456.805 235.089L456.752 235.035C451.407 229.873 448.984 221.513 450.429 213.218C451.307 208.059 455.101 204.394 458.453 201.158C460.652 199.034 462.728 197.026 463.635 194.905L463.699 194.756L463.816 194.87C469.147 200.014 471.584 208.36 470.182 216.645C468.733 224.948 463.635 232.005 456.876 235.06L456.805 235.089ZM463.77 195.139C462.817 197.245 460.769 199.225 458.605 201.317C455.282 204.529 451.513 208.169 450.649 213.257C449.217 221.453 451.594 229.71 456.851 234.827C463.508 231.782 468.527 224.806 469.958 216.606C471.34 208.452 468.97 200.244 463.77 195.139Z" fill="#A5CA39"/>
<path fill-rule="evenodd" clip-rule="evenodd" d="M415.61 235.924C421.328 234.518 427.18 225.9 435.845 225.854C444.556 225.765 452.207 229.678 456.256 235.57C452.296 241.55 444.733 245.593 436.022 245.639C427.311 245.728 419.702 241.816 415.61 235.924Z" fill="#A5CA39"/>
<path d="M435.742 245.753C427.442 245.753 419.712 242.028 415.518 235.988L415.426 235.857L415.582 235.818C417.849 235.262 420.176 233.531 422.638 231.697C426.372 228.921 430.605 225.773 435.841 225.745C435.933 225.745 436.029 225.745 436.125 225.745C444.467 225.745 452.197 229.469 456.345 235.51L456.387 235.57L456.345 235.634C452.243 241.834 444.453 245.711 436.018 245.753C435.93 245.753 435.834 245.753 435.742 245.753ZM415.794 235.991C420.013 241.961 427.74 245.612 436.022 245.53C444.354 245.488 452.048 241.674 456.122 235.574C451.956 229.562 444.194 225.872 435.848 225.968C430.687 225.992 426.486 229.119 422.777 231.874C420.346 233.679 418.051 235.386 415.794 235.991Z" fill="#A5CA39"/>
<path fill-rule="evenodd" clip-rule="evenodd" d="M413.191 235.266C421.154 193.893 461.095 166.81 502.485 174.723C543.879 182.637 570.975 222.604 563.057 263.974C555.094 305.301 515.153 332.43 473.763 324.47C432.37 316.561 405.274 276.593 413.191 235.266Z" fill="#FAEC16"/>
<path d="M488.319 325.979C483.476 325.979 478.602 325.519 473.742 324.584C453.699 320.753 436.351 309.345 424.895 292.462C413.442 275.587 409.248 255.267 413.085 235.245C416.942 215.204 428.363 197.865 445.243 186.422C462.126 174.975 482.463 170.782 502.51 174.617C522.557 178.448 539.904 189.86 551.357 206.742C562.809 223.62 567.004 243.955 563.167 263.999C559.309 284.025 547.889 301.357 531.009 312.8C518.214 321.475 503.442 325.979 488.319 325.979ZM413.301 235.287C409.475 255.25 413.658 275.513 425.079 292.339C436.504 309.171 453.801 320.544 473.784 324.364C478.616 325.292 483.434 325.742 488.181 325.742C523.945 325.745 555.937 300.358 562.947 263.956C566.773 243.972 562.59 223.698 551.169 206.866C539.748 190.03 522.45 178.653 502.464 174.833C461.23 166.951 421.232 194.07 413.301 235.287Z" fill="#FAEC16"/>
<path fill-rule="evenodd" clip-rule="evenodd" d="M421.197 236.76C428.717 197.628 466.547 171.997 505.741 179.471C544.888 186.988 570.536 224.799 563.057 263.974C555.537 303.106 517.707 328.779 478.514 321.262C439.363 313.745 413.719 275.934 421.197 236.76Z" fill="#F9CE0D"/>
<path d="M492.276 322.689C487.699 322.689 483.087 322.254 478.492 321.372C459.53 317.732 443.118 306.926 432.278 290.943C421.438 274.964 417.467 255.713 421.087 236.739C424.732 217.785 435.54 201.381 451.531 190.546C467.518 179.712 486.778 175.743 505.762 179.361C524.725 183.005 541.137 193.807 551.977 209.79C562.817 225.769 566.788 245.02 563.167 263.995C559.522 282.955 548.711 299.367 532.724 310.205C520.605 318.423 506.605 322.689 492.276 322.689ZM421.307 236.781C413.857 275.814 439.529 313.664 478.535 321.156C483.105 322.031 487.66 322.456 492.152 322.456C526.032 322.459 556.327 298.421 562.951 263.956C570.401 224.923 544.729 187.073 505.723 179.584C466.671 172.135 428.803 197.794 421.307 236.781Z" fill="#F9CE0D"/>
<path fill-rule="evenodd" clip-rule="evenodd" d="M492.106 317.789C529.277 317.789 559.582 287.494 559.582 250.388C559.582 213.235 529.273 182.944 492.106 182.944C454.981 182.944 424.672 213.239 424.672 250.388C424.672 287.498 454.981 317.789 492.106 317.789Z" fill="white"/>
<path d="M492.106 317.902C474.121 317.902 457.174 310.863 444.389 298.085C431.604 285.307 424.562 268.368 424.562 250.392C424.562 213.14 454.864 182.835 492.106 182.835C529.376 182.835 559.695 213.14 559.695 250.392C559.695 287.615 529.372 317.902 492.106 317.902ZM492.106 183.058C454.985 183.058 424.785 213.264 424.785 250.392C424.785 287.495 454.985 317.683 492.106 317.683C529.252 317.683 559.472 287.498 559.472 250.392C559.472 213.264 529.252 183.058 492.106 183.058Z" fill="white"/>
<path fill-rule="evenodd" clip-rule="evenodd" d="M492.106 316.34C528.483 316.34 558.087 286.708 558.087 250.391C558.087 214.032 528.483 184.442 492.106 184.442C455.771 184.442 426.124 214.032 426.124 250.391C426.124 286.705 455.771 316.34 492.106 316.34Z" fill="#D58A28"/>
<path d="M492.106 316.45C455.661 316.45 426.011 286.814 426.011 250.391C426.011 213.964 455.661 184.329 492.106 184.329C528.55 184.329 558.201 213.964 558.201 250.391C558.197 286.814 528.55 316.45 492.106 316.45ZM492.106 184.552C455.785 184.552 426.234 214.088 426.234 250.391C426.234 286.694 455.785 316.231 492.106 316.231C528.427 316.231 557.978 286.694 557.978 250.391C557.978 214.088 528.427 184.552 492.106 184.552Z" fill="#D58A28"/>
<path fill-rule="evenodd" clip-rule="evenodd" d="M492.106 315.108C527.782 315.108 556.854 286.004 556.854 250.391C556.854 214.733 527.778 185.674 492.106 185.674C456.476 185.674 427.357 214.736 427.357 250.391C427.357 286.004 456.476 315.108 492.106 315.108Z" fill="#F9CE0D"/>
<path d="M492.106 315.218C474.843 315.218 458.573 308.459 446.291 296.18C434.01 283.904 427.244 267.642 427.244 250.388C427.244 214.641 456.341 185.558 492.106 185.558C527.87 185.558 556.968 214.641 556.968 250.388C556.968 286.135 527.87 315.218 492.106 315.218ZM492.106 185.781C456.465 185.781 427.467 214.765 427.467 250.388C427.467 286.011 456.465 314.995 492.106 314.995C527.746 314.995 556.745 286.011 556.745 250.388C556.745 214.765 527.746 185.781 492.106 185.781Z" fill="#F9CE0D"/>
<path fill-rule="evenodd" clip-rule="evenodd" d="M523.028 270.308C523.028 274.794 522.192 278.749 520.566 282.268C518.894 285.742 516.563 288.688 513.527 291.06C510.491 293.436 506.885 295.281 502.662 296.513C500.859 296.998 499.01 297.437 497.076 297.745V303.987C497.076 305.658 495.755 306.976 494.129 306.976H490.126C488.5 306.976 487.178 305.655 487.178 303.987V298.315C484.628 298.272 482.208 298.007 479.92 297.61C477.104 297.171 474.553 296.555 472.311 295.808C470.111 295.061 468.219 294.314 466.636 293.521C465.095 292.728 463.954 291.981 463.292 291.368C462.544 290.709 462.016 289.785 461.708 288.642C461.4 287.498 461.223 285.915 461.223 283.894C461.223 282.661 461.265 281.606 461.4 280.817C461.531 279.939 461.708 279.277 461.885 278.749C462.105 278.221 462.371 277.871 462.721 277.605C463.072 277.386 463.469 277.297 463.954 277.297C464.613 277.297 465.715 277.736 467.079 278.618C468.485 279.496 470.203 280.42 472.226 281.475C474.248 282.488 476.668 283.455 479.438 284.29C481.727 285.037 484.32 285.476 487.178 285.611V255.055L485.287 254.307C482.605 253.21 479.92 251.978 477.281 250.572C474.684 249.209 472.353 247.495 470.242 245.473C468.219 243.452 466.547 241.076 465.314 238.307C464.039 235.538 463.423 232.196 463.423 228.283C463.423 224.898 464.082 221.602 465.403 218.479C466.724 215.314 468.701 212.587 471.34 210.215C474.022 207.885 477.366 205.952 481.326 204.543C483.129 203.884 485.064 203.399 487.178 203.049V196.76C487.178 195.089 488.5 193.772 490.126 193.772H494.129C495.755 193.772 497.076 195.093 497.076 196.76V202.433C498.79 202.521 500.509 202.695 502.266 203.003C504.597 203.399 506.665 203.927 508.557 204.543C510.449 205.113 512.032 205.775 513.35 206.476C514.671 207.223 515.727 207.797 516.386 208.367C517.045 208.894 517.484 209.379 517.707 209.73C517.973 210.127 518.146 210.566 518.235 211.051C518.324 211.536 518.412 212.106 518.543 212.81C518.632 213.557 518.674 214.393 518.674 215.406C518.674 216.503 518.632 217.473 518.543 218.263C518.412 219.056 518.281 219.715 518.015 220.242C517.796 220.77 517.53 221.12 517.179 221.34C516.871 221.559 516.52 221.69 516.124 221.69C515.553 221.69 514.717 221.294 513.573 220.593C512.517 219.888 511.065 219.141 509.308 218.306C507.547 217.47 505.525 216.723 503.151 216.018C501.348 215.448 499.325 215.094 497.079 215.006V243.494L500.863 244.988C503.633 246.086 506.318 247.318 509 248.681C511.681 250.044 514.101 251.716 516.127 253.606C518.238 255.586 519.864 257.915 521.143 260.596C522.415 263.315 523.028 266.569 523.028 270.308ZM497.076 284.552C499.01 283.982 500.64 283.189 502.092 282.134C503.718 281.036 504.951 279.585 505.829 277.825C506.708 276.065 507.151 273.955 507.151 271.583C507.151 269.122 506.492 267.012 505.259 265.383C503.984 263.669 502.312 262.175 500.289 260.897C499.276 260.281 498.22 259.665 497.079 259.137V284.552H497.076ZM487.178 216.05C485.375 216.62 483.923 217.413 482.736 218.426C481.415 219.57 480.405 220.887 479.746 222.427C479.041 223.967 478.691 225.635 478.691 227.441C478.691 229.947 479.396 232.058 480.671 233.771C481.946 235.531 483.618 236.979 485.687 238.3C486.172 238.565 486.654 238.87 487.182 239.136V216.05H487.178Z" fill="white"/>
<path fill-rule="evenodd" clip-rule="evenodd" d="M442.267 198.817L443.366 214.995L459.555 216.096L443.366 217.194L442.267 233.332L441.169 217.194L425.023 216.096L441.169 214.995L442.267 198.817Z" fill="white"/>
<path d="M442.157 233.34L441.063 217.3L425.016 216.206V215.983L441.063 214.889L442.157 198.807H442.381L443.475 214.889L459.565 215.983V216.206L443.475 217.3L442.381 233.34H442.157ZM426.659 216.096L441.272 217.091L442.267 231.697L443.263 217.091L457.914 216.096L443.263 215.101L442.267 200.457L441.272 215.101L426.659 216.096Z" fill="white"/>
<path fill-rule="evenodd" clip-rule="evenodd" d="M117.089 573.999L124.376 587.892C130.894 596.365 156.786 597.498 145.251 611.565L100.9 602.381L109.568 584.337L117.089 573.999Z" fill="#01327F"/>
<path fill-rule="evenodd" clip-rule="evenodd" d="M102.189 599.729L147.405 608.24C146.923 609.26 146.233 610.354 145.251 611.565L100.9 602.381L102.189 599.729Z" fill="#2C7EFE"/>
<path fill-rule="evenodd" clip-rule="evenodd" d="M136.927 596.538C136.176 596.403 135.446 596.903 135.294 597.653C135.159 598.404 135.658 599.133 136.409 599.286C137.178 599.42 137.89 598.921 138.042 598.17C138.177 597.402 137.678 596.69 136.927 596.538Z" fill="white"/>
<path fill-rule="evenodd" clip-rule="evenodd" d="M131.546 594.368C130.777 594.233 130.065 594.715 129.913 595.483C129.778 596.234 130.278 596.963 131.029 597.098C131.78 597.25 132.509 596.751 132.662 596.004C132.793 595.232 132.293 594.502 131.546 594.368Z" fill="white"/>
<path fill-rule="evenodd" clip-rule="evenodd" d="M126.547 592.002C125.779 591.868 125.049 592.349 124.914 593.118C124.78 593.868 125.261 594.598 126.03 594.732C126.781 594.885 127.511 594.385 127.645 593.638C127.794 592.866 127.295 592.137 126.547 592.002Z" fill="white"/>
<path fill-rule="evenodd" clip-rule="evenodd" d="M166.336 579.324L175.872 591.773C183.737 599.017 209.437 595.749 200.46 611.565L155.206 610.029L160.686 590.774L166.336 579.324Z" fill="#121863"/>
<path fill-rule="evenodd" clip-rule="evenodd" d="M156.013 607.203L202.016 607.915C201.729 609.009 201.229 610.22 200.457 611.565L155.202 610.029L156.013 607.203Z" fill="#0643A3"/>
<path fill-rule="evenodd" clip-rule="evenodd" d="M189.713 598.171C188.944 598.153 188.31 598.766 188.289 599.534C188.289 600.302 188.905 600.936 189.674 600.957C190.442 600.957 191.076 600.362 191.076 599.594C191.098 598.826 190.481 598.192 189.713 598.171Z" fill="white"/>
<path fill-rule="evenodd" clip-rule="evenodd" d="M184.041 596.942C183.273 596.924 182.638 597.537 182.617 598.305C182.599 599.073 183.212 599.707 183.981 599.728C184.75 599.746 185.384 599.133 185.405 598.365C185.426 597.593 184.81 596.959 184.041 596.942Z" fill="white"/>
<path fill-rule="evenodd" clip-rule="evenodd" d="M178.699 595.462C177.93 595.445 177.296 596.057 177.296 596.825C177.279 597.594 177.891 598.228 178.66 598.249C179.429 598.249 180.063 597.633 180.084 596.864C180.081 596.096 179.468 595.48 178.699 595.462Z" fill="white"/>
<path fill-rule="evenodd" clip-rule="evenodd" d="M135.138 429.966L175.507 443.955L181.352 518.469L173.874 589.064L161.146 589.62L158.897 518.795L135.138 429.966Z" fill="#004F94"/>
<path fill-rule="evenodd" clip-rule="evenodd" d="M128.797 436.424L164.072 446.472L149.616 519.793L123.816 586.026L109.32 584.872C115.778 563.025 121.45 535.914 127.911 514.065C128.198 488.185 120.047 457.944 128.797 436.424Z" fill="#004F94"/>
<path fill-rule="evenodd" clip-rule="evenodd" d="M188.072 286.269L185.376 282.049C184.098 279.454 182.858 276.841 181.579 274.245C178.83 269.338 182.819 273.682 185.734 276.515C189.39 272.96 189.95 265.146 193.4 264.441C196.464 264.306 195.246 270.977 194.874 272.344C193.368 279.011 192.128 279.482 189.082 282.923L188.072 286.269Z" fill="#FFCDAD"/>
<path fill-rule="evenodd" clip-rule="evenodd" d="M145.758 404.402L144.649 366.917L176.372 339.444L183.085 280.187L191.965 281.745C191.165 301.201 190.343 320.622 189.521 340.039C188.721 346.692 187.559 350.109 183.432 355.509L145.758 404.402Z" fill="#0EBAA0"/>
<path fill-rule="evenodd" clip-rule="evenodd" d="M144.883 357.299L156.959 361.7C160.225 364.367 164.947 366.693 165.691 375.095C169.032 398.209 179.064 434.582 175.716 444.436C171.55 458.146 142.789 445.41 126.342 445.852C127.72 419.694 129.098 393.535 130.476 367.376C131.949 363.035 139.612 359.82 144.883 357.299Z" fill="#0EBAA0"/>
<path fill-rule="evenodd" clip-rule="evenodd" d="M153.845 351.79L141.383 353.334L142.577 362.487C147.228 361.945 160.374 372.854 156.608 360.805L153.845 351.79Z" fill="#FCBA95"/>
<path fill-rule="evenodd" clip-rule="evenodd" d="M126.158 335.16L151.235 321.826C158.047 331.159 163.792 352.162 156.283 354.365C139.382 357.92 135.081 352.867 126.158 335.16Z" fill="#FFCDAD"/>
<path d="M159.425 342.475C157.26 339.391 149.92 346.943 146.311 345.743L130.745 334.452C139.261 344.267 138.252 352.754 146.201 355.384C149.017 355.537 152.322 355.19 156.286 354.358C159.705 353.352 160.371 348.441 159.425 342.475Z" fill="#060352"/>
<path d="M145.744 347.202C145.847 347.616 145.999 348.069 146.187 348.469C147.763 351.638 151.61 352.973 154.781 351.397C156.343 350.611 157.487 349.287 157.994 347.754C152.737 350.059 147.501 349.829 145.744 347.202Z" fill="white"/>
<path fill-rule="evenodd" clip-rule="evenodd" d="M133.689 335.489L152.666 323.978C156.69 322.665 159.35 310.722 148.762 306.792C138.779 304.366 136.165 318.71 125.141 326.322C117.588 334.763 124.075 345.131 135.442 350.279C141.294 347.071 130.086 337.646 133.689 335.489Z" fill="#060352"/>
<path fill-rule="evenodd" clip-rule="evenodd" d="M137.146 344.532C136.169 342.825 135.191 341.118 134.256 339.405C131.408 335.474 128.088 337.801 130.086 340.909C132.902 344.932 134.075 343.515 137.146 344.532Z" fill="#FFCDAD"/>
<path fill-rule="evenodd" clip-rule="evenodd" d="M98.9269 295.358L101.871 291.354C103.337 288.861 104.804 286.326 106.228 283.826C109.306 279.149 105.038 283.182 101.941 285.813C98.5549 281.978 98.5372 274.171 95.1506 273.24C92.0652 272.84 92.841 279.638 93.0819 281.019C94.1588 287.795 95.3561 288.351 98.1157 291.97L98.9269 295.358Z" fill="#FFCDAD"/>
<path fill-rule="evenodd" clip-rule="evenodd" d="M138.028 362.579C119.041 344.11 106.472 309.826 104.233 289.952C101.757 290.536 99.281 291.12 96.7623 291.701C98.2962 315.916 106.497 353.844 130.015 392.356C132.676 382.4 135.375 372.489 138.028 362.579Z" fill="#0EBAA0"/>
<path fill-rule="evenodd" clip-rule="evenodd" d="M64.257 207.733C72.2027 166.441 112.066 139.411 153.378 147.311C194.69 155.21 221.733 195.096 213.829 236.388C205.884 277.637 166.021 304.709 124.709 296.768C83.3968 288.868 56.3538 248.982 64.257 207.733Z" fill="#F8EA14"/>
<path d="M139.236 298.269C134.404 298.269 129.537 297.809 124.687 296.878C104.683 293.054 87.3678 281.667 75.9328 264.82C64.5014 247.977 60.3178 227.699 64.1436 207.715C67.9907 187.714 79.3903 170.411 96.2381 158.988C113.086 147.566 133.384 143.381 153.395 147.205C173.403 151.029 190.715 162.416 202.15 179.269C213.581 196.116 217.765 216.411 213.939 236.413C210.089 256.4 198.689 273.697 181.845 285.119C169.074 293.772 154.331 298.269 139.236 298.269ZM64.3632 207.754C60.5445 227.678 64.721 247.902 76.1171 264.693C87.5166 281.49 104.782 292.845 124.726 296.658C129.548 297.586 134.358 298.032 139.095 298.032C174.788 298.035 206.716 272.698 213.716 236.367C217.535 216.422 213.358 196.187 201.962 179.39C190.563 162.589 173.3 151.234 153.353 147.421C112.2 139.553 72.2806 166.618 64.3632 207.754Z" fill="#F8EA14"/>
<path fill-rule="evenodd" clip-rule="evenodd" d="M72.2451 209.227C79.7516 170.173 117.507 144.591 156.626 152.052C195.699 159.555 221.293 197.291 213.829 236.391C206.323 275.445 168.568 301.073 129.448 293.567C90.3789 286.061 64.7812 248.324 72.2451 209.227Z" fill="#F8CD12"/>
<path d="M143.186 294.987C138.616 294.987 134.015 294.551 129.427 293.673C110.5 290.04 94.1196 279.252 83.3046 263.304C72.4859 247.357 68.522 228.141 72.1352 209.202C75.7733 190.284 86.5636 173.912 102.519 163.102C118.474 152.289 137.699 148.327 156.644 151.938C175.571 155.575 191.951 166.36 202.766 182.307C213.585 198.254 217.549 217.47 213.936 236.405C210.298 255.327 199.507 271.706 183.552 282.523C171.458 290.727 157.487 294.987 143.186 294.987ZM72.3549 209.248C64.9193 248.203 90.5418 285.979 129.47 293.457C134.029 294.331 138.577 294.753 143.058 294.753C176.871 294.756 207.106 270.765 213.719 236.367C221.155 197.412 195.533 159.636 156.605 152.158C117.631 144.726 79.8365 170.336 72.3549 209.248Z" fill="#F8CD12"/>
<path fill-rule="evenodd" clip-rule="evenodd" d="M143.016 290.097C180.113 290.097 210.361 259.863 210.361 222.828C210.361 185.749 180.113 155.515 143.016 155.515C105.962 155.515 75.7133 185.749 75.7133 222.828C75.7133 259.863 105.962 290.097 143.016 290.097Z" fill="white"/>
<path d="M143.016 290.21C125.066 290.21 108.151 283.185 95.3915 270.432C82.6316 257.678 75.6034 240.771 75.6034 222.83C75.6034 185.653 105.845 155.408 143.016 155.408C180.212 155.408 210.471 185.653 210.471 222.83C210.471 259.983 180.212 290.21 143.016 290.21ZM143.016 155.628C105.966 155.628 75.8266 185.773 75.8266 222.83C75.8266 259.863 105.969 289.987 143.016 289.987C180.088 289.987 210.252 259.859 210.252 222.83C210.252 185.773 180.088 155.628 143.016 155.628Z" fill="white"/>
<path fill-rule="evenodd" clip-rule="evenodd" d="M143.016 288.649C179.322 288.649 208.87 259.073 208.87 222.827C208.87 186.538 179.322 157.005 143.016 157.005C106.752 157.005 77.162 186.538 77.162 222.827C77.162 259.073 106.752 288.649 143.016 288.649Z" fill="#D48929"/>
<path d="M143.016 288.762C106.642 288.762 77.0521 259.186 77.0521 222.83C77.0521 186.474 106.642 156.899 143.016 156.899C179.39 156.899 208.98 186.474 208.98 222.83C208.98 259.183 179.39 288.762 143.016 288.762ZM143.016 157.118C106.766 157.118 77.2753 186.595 77.2753 222.827C77.2753 259.059 106.766 288.535 143.016 288.535C179.266 288.535 208.757 259.059 208.757 222.827C208.757 186.595 179.266 157.118 143.016 157.118Z" fill="#D48929"/>
<path fill-rule="evenodd" clip-rule="evenodd" d="M143.016 287.42C178.621 287.42 207.641 258.372 207.641 222.827C207.641 187.239 178.621 158.234 143.016 158.234C107.457 158.234 78.3911 187.239 78.3911 222.827C78.3911 258.372 107.457 287.42 143.016 287.42Z" fill="#F8CD12"/>
<path d="M143.016 287.533C125.789 287.533 109.547 280.785 97.2902 268.534C85.0334 256.283 78.2815 240.049 78.2815 222.83C78.2815 187.154 107.322 158.127 143.016 158.127C178.71 158.127 207.751 187.154 207.751 222.83C207.751 258.507 178.71 287.533 143.016 287.533ZM143.016 158.347C107.443 158.347 78.5047 187.275 78.5047 222.827C78.5047 258.383 107.446 287.307 143.016 287.307C178.589 287.307 207.527 258.379 207.527 222.827C207.527 187.275 178.589 158.347 143.016 158.347Z" fill="#F8CD12"/>
<path fill-rule="evenodd" clip-rule="evenodd" d="M99.3875 171.356L100.486 187.505L116.639 188.603L100.486 189.7L99.3875 205.804L98.2894 189.7L82.1783 188.603L98.2894 187.505L99.3875 171.356Z" fill="white"/>
<path d="M99.2775 205.811L98.1864 189.803L82.171 188.713V188.493L98.1864 187.403L99.2775 171.353H99.5006L100.592 187.403L116.65 188.493V188.713L100.592 189.803L99.5006 205.811H99.2775ZM83.8112 188.603L98.3954 189.594L99.3873 204.171L100.379 189.594L115.002 188.603L100.379 187.611L99.3873 172.995L98.3954 187.611L83.8112 188.603Z" fill="white"/>
<path d="M124.035 263.095L120.582 257.795C125.311 254.718 127.893 249.895 128.708 242.619C129.484 235.704 128.531 227.444 127.613 219.459C126.476 209.574 125.3 199.348 127.326 191.105C128.499 186.347 130.592 182.633 133.731 179.754C137.142 176.628 141.811 174.581 147.614 173.667L147.773 173.643L147.933 173.636C152.58 173.384 156.782 174.227 160.413 176.146C163.775 177.92 166.513 180.583 168.337 183.851C170.119 187.041 170.966 190.674 170.792 194.363C170.615 198.144 169.361 201.809 167.165 204.967L161.964 201.359C165.007 196.98 165.33 191.449 162.807 186.931C160.154 182.179 154.918 179.637 148.432 179.945C139.902 181.323 135.286 185.235 133.469 192.617C131.712 199.755 132.775 208.975 133.898 218.737C134.858 227.076 135.849 235.694 134.996 243.324C133.972 252.498 130.387 258.967 124.035 263.095Z" fill="white"/>
<path d="M123.242 266.852L116.827 256.999L119.104 255.519C123.157 252.884 125.286 248.812 126.016 242.315C126.756 235.705 125.824 227.604 124.921 219.768C123.756 209.642 122.551 199.172 124.694 190.454C125.998 185.158 128.354 181.004 131.9 177.75C135.711 174.256 140.858 171.979 147.199 170.984L147.795 170.92C152.942 170.641 157.614 171.59 161.688 173.739C165.514 175.757 168.635 178.795 170.714 182.52C172.74 186.152 173.708 190.288 173.513 194.484C173.311 198.772 171.89 202.932 169.403 206.512L167.855 208.742L158.192 202.04L159.74 199.809C162.187 196.286 162.457 191.86 160.441 188.252C158.333 184.474 154.065 182.438 148.719 182.647C141.319 183.876 137.663 186.96 136.115 193.259C134.475 199.926 135.509 208.909 136.604 218.423C137.582 226.91 138.591 235.687 137.702 243.622C136.579 253.653 132.594 260.766 125.52 265.369L123.242 266.852ZM124.244 258.44L124.733 259.19C129.016 255.515 131.499 250.197 132.3 243.02C133.118 235.698 132.144 227.232 131.205 219.046C130.054 209.036 128.966 199.579 130.837 191.966C132.923 183.49 138.375 178.82 148.004 177.265L148.156 177.241L148.308 177.233C155.861 176.876 162.014 179.928 165.184 185.607C167.777 190.253 167.877 195.776 165.574 200.553L166.318 201.069C167.367 198.927 167.969 196.605 168.082 194.232C168.231 191.049 167.501 187.916 165.967 185.172C164.402 182.364 162.042 180.073 159.148 178.547C155.956 176.865 152.237 176.122 148.085 176.348L148.039 176.352C142.775 177.177 138.581 178.997 135.573 181.755C132.842 184.258 131.01 187.53 129.969 191.754C128.056 199.522 129.204 209.5 130.316 219.148C131.251 227.285 132.222 235.698 131.411 242.921C130.628 249.91 128.332 254.913 124.244 258.44Z" fill="white"/>
<path d="M119.859 257.28L119.844 263.607L172.184 263.724L172.198 257.397L119.859 257.28Z" fill="white"/>
<path d="M174.895 266.449L117.121 266.321L117.146 254.566L174.919 254.693L174.895 266.449ZM122.566 260.9L169.471 261.006L169.475 260.111L122.569 260.004L122.566 260.9Z" fill="white"/>
<path d="M115.89 222.106L115.872 228.434L157.475 228.551L157.493 222.224L115.89 222.106Z" fill="white"/>
<path d="M160.183 231.275L113.15 231.144L113.182 219.389L160.215 219.52L160.183 231.275ZM118.598 225.727L154.766 225.829L154.77 224.933L118.601 224.831L118.598 225.727Z" fill="white"/>
<path d="M166.152 206.093C168.136 204.11 168.136 200.896 166.152 198.913C164.168 196.93 160.952 196.93 158.968 198.913C156.984 200.896 156.984 204.11 158.968 206.093C160.952 208.076 164.168 208.076 166.152 206.093Z" fill="white"/>
<path d="M162.563 210.296C158.263 210.296 154.766 206.801 154.766 202.503C154.766 198.205 158.263 194.71 162.563 194.71C166.864 194.71 170.36 198.205 170.36 202.503C170.36 206.801 166.864 210.296 162.563 210.296ZM162.563 200.141C161.26 200.141 160.2 201.2 160.2 202.503C160.2 203.806 161.26 204.865 162.563 204.865C163.867 204.865 164.926 203.806 164.926 202.503C164.926 201.2 163.867 200.141 162.563 200.141Z" fill="white"/>
<path d="M162.563 207.605C159.75 207.605 157.462 205.318 157.462 202.506C157.462 199.695 159.75 197.408 162.563 197.408C165.376 197.408 167.664 199.695 167.664 202.506C167.664 205.318 165.376 207.605 162.563 207.605ZM162.563 197.45C159.775 197.45 157.505 199.716 157.505 202.506C157.505 205.293 159.772 207.562 162.563 207.562C165.351 207.562 167.622 205.293 167.622 202.506C167.622 199.716 165.351 197.45 162.563 197.45Z" fill="white"/>
<path d="M162.563 210.321C158.252 210.321 154.745 206.816 154.745 202.507C154.745 198.198 158.252 194.692 162.563 194.692C166.874 194.692 170.381 198.198 170.381 202.507C170.381 206.812 166.874 210.321 162.563 210.321ZM162.563 200.163C161.274 200.163 160.221 201.214 160.221 202.503C160.221 203.792 161.274 204.844 162.563 204.844C163.852 204.844 164.905 203.792 164.905 202.503C164.905 201.214 163.852 200.163 162.563 200.163Z" fill="white"/>
<path d="M397.498 420.123V428.298C397.498 430.84 396.045 433.202 393.619 433.928L393.378 434.108L386.534 440.829V584.882H384.412V597.296H382.896V606.562H367.267V597.296H365.69V584.882H268.461V597.296H266.945V606.562H251.255V597.296H249.743V584.882H247.684V440.829L240.84 434.108L240.536 433.928C238.173 433.202 236.721 430.84 236.721 428.298V420.123H397.498Z" fill="#DFCFFD"/>
<path d="M377.083 442.645H257.132V480.552H377.083V442.645Z" fill="#A9ACD1"/>
<path d="M376.236 442.89H257.922V478.736H376.236V442.89Z" fill="#DFCFFD"/>
<path d="M317.109 465.111C321.775 465.111 325.59 463.174 325.59 460.812C325.59 458.45 321.775 456.514 317.109 456.514C312.384 456.514 308.568 458.45 308.568 460.812C308.568 463.174 312.384 465.111 317.109 465.111Z" fill="#A9ACD1"/>
<path d="M319.472 461.113C321.109 461.113 322.44 460.448 322.44 459.598C322.44 458.812 321.109 458.083 319.472 458.083C317.835 458.083 316.564 458.808 316.564 459.598C316.564 460.448 317.835 461.113 319.472 461.113Z" fill="#FEFEFE"/>
<path d="M377.083 491.27H257.132V529.113H377.083V491.27Z" fill="#A9ACD1"/>
<path d="M376.236 491.511H257.922V527.297H376.236V491.511Z" fill="#DFCFFD"/>
<path d="M317.109 513.736C321.775 513.736 325.59 511.799 325.59 509.377C325.59 507.015 321.775 505.079 317.109 505.079C312.384 505.079 308.568 507.015 308.568 509.377C308.565 511.795 312.384 513.736 317.109 513.736Z" fill="#A9ACD1"/>
<path d="M319.472 509.678C321.109 509.678 322.44 509.012 322.44 508.226C322.44 507.38 321.109 506.71 319.472 506.71C317.835 506.71 316.564 507.376 316.564 508.226C316.564 509.012 317.835 509.678 319.472 509.678Z" fill="#FEFEFE"/>
<path d="M377.083 539.77H257.132V577.677H377.083V539.77Z" fill="#A9ACD1"/>
<path d="M376.236 540.015H257.922V575.861H376.236V540.015Z" fill="#DFCFFD"/>
<path d="M317.109 562.236C321.775 562.236 325.59 560.299 325.59 557.938C325.59 555.576 321.775 553.639 317.109 553.639C312.384 553.639 308.568 555.576 308.568 557.938C308.565 560.299 312.384 562.236 317.109 562.236Z" fill="#A9ACD1"/>
<path d="M319.472 558.239C321.109 558.239 322.44 557.573 322.44 556.723C322.44 555.937 321.109 555.271 319.472 555.271C317.835 555.271 316.564 555.937 316.564 556.723C316.564 557.573 317.835 558.239 319.472 558.239Z" fill="#FEFEFE"/>
<path d="M235.683 71.8436C236.823 71.8436 236.823 70.0732 235.683 70.0732C234.542 70.0732 234.538 71.8436 235.683 71.8436Z" fill="white"/>
<path d="M368.879 73.2596C370.019 73.2596 370.019 71.4893 368.879 71.4893C367.738 71.4893 367.734 73.2596 368.879 73.2596Z" fill="white"/>
<defs>
<linearGradient id="paint0_linear_73_1060" x1="296.48" y1="404.356" x2="334.733" y2="404.356" gradientUnits="userSpaceOnUse">
<stop stop-color="#0643A3"/>
<stop offset="1" stop-color="#2C7EFE"/>
</linearGradient>
<linearGradient id="paint1_linear_73_1060" x1="295.014" y1="388.564" x2="336.199" y2="388.564" gradientUnits="userSpaceOnUse">
<stop stop-color="#2C7EFE"/>
<stop offset="1" stop-color="#84B2FE"/>
</linearGradient>
<linearGradient id="paint2_linear_73_1060" x1="224.202" y1="168.644" x2="401.454" y2="168.644" gradientUnits="userSpaceOnUse">
<stop stop-color="#2C7EFE"/>
<stop offset="1" stop-color="#84B2FE"/>
</linearGradient>
</defs>
</svg>
