<svg width="21" height="21" viewBox="0 0 21 21" fill="none" xmlns="http://www.w3.org/2000/svg">
<path d="M10.05 0.589966C4.54005 0.589966 0.0500488 5.07997 0.0500488 10.59C0.0500488 16.1 4.54005 20.59 10.05 20.59C15.56 20.59 20.05 16.1 20.05 10.59C20.05 5.07997 15.56 0.589966 10.05 0.589966ZM14.05 11.34H10.8V14.59C10.8 15 10.46 15.34 10.05 15.34C9.64005 15.34 9.30005 15 9.30005 14.59V11.34H6.05005C5.64005 11.34 5.30005 11 5.30005 10.59C5.30005 10.18 5.64005 9.83997 6.05005 9.83997H9.30005V6.58997C9.30005 6.17997 9.64005 5.83997 10.05 5.83997C10.46 5.83997 10.8 6.17997 10.8 6.58997V9.83997H14.05C14.46 9.83997 14.8 10.18 14.8 10.59C14.8 11 14.46 11.34 14.05 11.34Z" fill="white"/>
</svg>
