<svg width="12" height="75" viewBox="0 0 12 75" fill="none" xmlns="http://www.w3.org/2000/svg">
<path d="M9.79016 0.611661L11.1023 0.611661V8.43007H9.79016V5.27804L1 5.27804V3.75876L9.79016 3.75876V0.611661ZM0.847085 12.2061C0.847085 11.4596 1.00658 10.8167 1.32556 10.2774C1.64783 9.74136 2.1 9.32701 2.68207 9.03433C3.26742 8.74494 3.95307 8.60025 4.73903 8.60025C5.51511 8.60025 6.19912 8.74494 6.79105 9.03433C7.38298 9.32701 7.84501 9.73478 8.17715 10.2577C8.50929 10.7838 8.67536 11.3988 8.67536 12.1025C8.67536 12.53 8.60466 12.9444 8.46325 13.3456C8.32185 13.7468 8.09987 14.1068 7.79733 14.4258C7.49479 14.7448 7.10181 14.9964 6.6184 15.1805C6.13828 15.3647 5.55457 15.4568 4.86728 15.4568H4.3444L4.3444 9.43389H5.44934V14.0115C5.83738 14.0115 6.18103 13.9326 6.48029 13.7747C6.78283 13.6169 7.02124 13.3949 7.19553 13.1088C7.36983 12.826 7.45697 12.4938 7.45697 12.1124C7.45697 11.698 7.35503 11.3363 7.15114 11.0272C6.95054 10.7213 6.68746 10.4846 6.3619 10.3168C6.03963 10.1524 5.6894 10.0702 5.31122 10.0702H4.44799C3.94156 10.0702 3.51077 10.159 3.15561 10.3366C2.80045 10.5174 2.52915 10.769 2.34171 11.0913C2.15755 11.4136 2.06547 11.7901 2.06547 12.2209C2.06547 12.5004 2.10494 12.7553 2.18386 12.9855C2.26607 13.2157 2.38775 13.4146 2.54888 13.5823C2.71002 13.75 2.90897 13.8783 3.14575 13.9671L2.89418 15.3631C2.48311 15.2512 2.12302 15.0506 1.8139 14.7613C1.50807 14.4752 1.26966 14.1151 1.09866 13.681C0.930941 13.2502 0.847085 12.7586 0.847085 12.2061ZM6.72692 22.7708L6.49015 21.434C6.66115 21.3781 6.82393 21.2893 6.97849 21.1677C7.13305 21.0493 7.25966 20.8881 7.35832 20.6843C7.45697 20.4804 7.5063 20.2255 7.5063 19.9197C7.5063 19.502 7.41258 19.1535 7.22513 18.8739C7.04098 18.5944 6.80256 18.4547 6.50988 18.4547C6.25667 18.4547 6.05278 18.5484 5.89822 18.7358C5.74366 18.9233 5.61705 19.2258 5.5184 19.6434L5.24217 20.847C5.08103 21.5442 4.83275 22.0638 4.49732 22.4058C4.16189 22.7478 3.72617 22.9188 3.19014 22.9188C2.73633 22.9188 2.33184 22.7873 1.97668 22.5242C1.62482 22.2644 1.34858 21.901 1.14798 21.434C0.947384 20.9704 0.847085 20.4327 0.847085 19.821C0.847085 18.9726 1.02795 18.2804 1.38969 17.7443C1.75471 17.2083 2.27265 16.8795 2.9435 16.7578L3.16054 18.1834C2.78894 18.2721 2.50778 18.4547 2.31704 18.7309C2.1296 19.0071 2.03588 19.3672 2.03588 19.8112C2.03588 20.2946 2.13618 20.681 2.33678 20.9704C2.54066 21.2597 2.78894 21.4044 3.08162 21.4044C3.31839 21.4044 3.51735 21.3156 3.67848 21.1381C3.83962 20.9638 3.96129 20.6958 4.04351 20.334L4.32467 19.0515C4.48581 18.3445 4.74231 17.8216 5.09418 17.4829C5.44605 17.1475 5.89164 16.9798 6.43096 16.9798C6.87819 16.9798 7.26953 17.1047 7.60495 17.3546C7.94038 17.6046 8.20182 17.9499 8.38926 18.3905C8.57999 18.8312 8.67536 19.336 8.67536 19.9049C8.67536 20.7237 8.49778 21.3683 8.14262 21.8385C7.79075 22.3088 7.31885 22.6195 6.72692 22.7708ZM8.5767 28.0772H7.39284V23.9386H8.5767V28.0772ZM10.392 25.0485V26.5234H3.22467C2.93857 26.5234 2.72317 26.5661 2.57848 26.6517C2.43707 26.7372 2.34006 26.8473 2.28745 26.9821C2.23812 27.1203 2.21346 27.2699 2.21346 27.431C2.21346 27.5494 2.22168 27.653 2.23812 27.7418C2.25456 27.8306 2.26772 27.8996 2.27758 27.949L1.05919 28.2153C1.02631 28.1298 0.993423 28.0082 0.960538 27.8503C0.924364 27.6925 0.904633 27.4952 0.901345 27.2584C0.894768 26.8703 0.963826 26.5086 1.10852 26.1732C1.25321 25.8377 1.47683 25.5664 1.77937 25.3593C2.08192 25.1521 2.46174 25.0485 2.91884 25.0485H10.392ZM1 29.7087H8.5767V31.1836H1V29.7087ZM9.74577 30.4536C9.74577 30.1971 9.83127 29.9767 10.0023 29.7926C10.1766 29.6117 10.3837 29.5213 10.6238 29.5213C10.8671 29.5213 11.0743 29.6117 11.2453 29.7926C11.4196 29.9767 11.5068 30.1971 11.5068 30.4536C11.5068 30.7101 11.4196 30.9288 11.2453 31.1096C11.0743 31.2938 10.8671 31.3859 10.6238 31.3859C10.3837 31.3859 10.1766 31.2938 10.0023 31.1096C9.83127 30.9288 9.74577 30.7101 9.74577 30.4536ZM1 33.1678H8.5767V34.5835H7.34352V34.6772C7.76116 34.8351 8.08672 35.0932 8.3202 35.4517C8.55697 35.8101 8.67536 36.2393 8.67536 36.7391C8.67536 37.2456 8.55697 37.6698 8.3202 38.0118C8.08343 38.3571 7.75787 38.6119 7.34352 38.7764V38.8553C7.748 39.0361 8.07028 39.3239 8.31034 39.7185C8.55369 40.1131 8.67536 40.5834 8.67536 41.1293C8.67536 41.8166 8.45996 42.3773 8.02917 42.8113C7.59838 43.2487 6.9489 43.4674 6.08073 43.4674H1V41.9925H5.94262C6.45562 41.9925 6.82722 41.8527 7.05742 41.5732C7.28761 41.2937 7.40271 40.9599 7.40271 40.5719C7.40271 40.0918 7.25473 39.7185 6.95876 39.4521C6.66609 39.1858 6.28955 39.0526 5.82916 39.0526H1V37.5826H6.03634C6.4474 37.5826 6.7779 37.4544 7.02782 37.1979C7.27775 36.9414 7.40271 36.6076 7.40271 36.1965C7.40271 35.917 7.32872 35.6589 7.18074 35.4221C7.03604 35.1886 6.8338 34.9995 6.57401 34.8548C6.31422 34.7134 6.01332 34.6427 5.67131 34.6427H1V33.1678ZM0.847085 48.6357C0.847085 47.9254 1.00987 47.3055 1.33543 46.776C1.66099 46.2466 2.11645 45.8355 2.7018 45.5429C3.28715 45.2502 3.97116 45.1038 4.75382 45.1038C5.53977 45.1038 6.22707 45.2502 6.81571 45.5429C7.40435 45.8355 7.86146 46.2466 8.18702 46.776C8.51258 47.3055 8.67536 47.9254 8.67536 48.6357C8.67536 49.346 8.51258 49.9659 8.18702 50.4953C7.86146 51.0248 7.40435 51.4358 6.81571 51.7285C6.22707 52.0212 5.53977 52.1675 4.75382 52.1675C3.97116 52.1675 3.28715 52.0212 2.7018 51.7285C2.11645 51.4358 1.66099 51.0248 1.33543 50.4953C1.00987 49.9659 0.847085 49.346 0.847085 48.6357ZM2.08521 48.6406C2.08521 49.101 2.20688 49.4825 2.45023 49.785C2.69358 50.0876 3.01749 50.3112 3.42198 50.4559C3.82647 50.6039 4.27206 50.6778 4.75876 50.6778C5.24217 50.6778 5.68611 50.6039 6.0906 50.4559C6.49837 50.3112 6.82558 50.0876 7.07222 49.785C7.31885 49.4825 7.44217 49.101 7.44217 48.6406C7.44217 48.1769 7.31885 47.7922 7.07222 47.4864C6.82558 47.1838 6.49837 46.9586 6.0906 46.8106C5.68611 46.6659 5.24217 46.5935 4.75876 46.5935C4.27206 46.5935 3.82647 46.6659 3.42198 46.8106C3.01749 46.9586 2.69358 47.1838 2.45023 47.4864C2.20688 47.7922 2.08521 48.1769 2.08521 48.6406ZM5.49867 55.2887H1V53.8138H8.5767V55.2295H7.34352V55.3233C7.74471 55.4976 8.06699 55.7705 8.31034 56.1421C8.55369 56.517 8.67536 56.9889 8.67536 57.5578C8.67536 58.0741 8.56684 58.5263 8.3498 58.9143C8.13605 59.3023 7.81706 59.6032 7.39284 59.817C6.96863 60.0307 6.44411 60.1376 5.8193 60.1376H1V58.6627H5.64172C6.1909 58.6627 6.62005 58.5197 6.92917 58.2336C7.24157 57.9475 7.39778 57.5545 7.39778 57.0547C7.39778 56.7127 7.32379 56.4085 7.1758 56.1421C7.02782 55.879 6.81078 55.6702 6.52468 55.5156C6.24187 55.3644 5.89987 55.2887 5.49867 55.2887ZM1 62.1157H8.5767V63.5906H1V62.1157ZM9.74577 62.8605C9.74577 62.604 9.83127 62.3837 10.0023 62.1995C10.1766 62.0186 10.3837 61.9282 10.6238 61.9282C10.8671 61.9282 11.0743 62.0186 11.2453 62.1995C11.4196 62.3837 11.5068 62.604 11.5068 62.8605C11.5068 63.117 11.4196 63.3357 11.2453 63.5166C11.0743 63.7007 10.8671 63.7928 10.6238 63.7928C10.3837 63.7928 10.1766 63.7007 10.0023 63.5166C9.83127 63.3357 9.74577 63.117 9.74577 62.8605ZM0.832286 67.7797C0.832286 67.2996 0.921076 66.8655 1.09866 66.4774C1.27952 66.0894 1.54096 65.7819 1.88296 65.555C2.22497 65.3314 2.64425 65.2196 3.14081 65.2196C3.56832 65.2196 3.92019 65.3018 4.19642 65.4662C4.47266 65.6307 4.69134 65.8526 4.85248 66.1322C5.01361 66.4117 5.13529 66.7241 5.2175 67.0694C5.29971 67.4147 5.3622 67.7665 5.40495 68.125C5.45756 68.5788 5.50031 68.9471 5.5332 69.2299C5.56937 69.5127 5.62692 69.7183 5.70584 69.8465C5.78477 69.9748 5.91302 70.0389 6.0906 70.0389H6.12513C6.55592 70.0389 6.8897 69.9172 7.12648 69.6739C7.36325 69.4338 7.48163 69.0754 7.48163 68.5985C7.48163 68.102 7.37147 67.7106 7.15114 67.4245C6.9341 67.1417 6.69239 66.9461 6.42603 66.8375L6.74172 65.4514C7.20211 65.6159 7.57371 65.8559 7.85652 66.1716C8.14262 66.4906 8.3498 66.8573 8.47805 67.2716C8.60959 67.686 8.67536 68.1217 8.67536 68.5788C8.67536 68.8813 8.63919 69.202 8.56684 69.5407C8.49778 69.8827 8.36953 70.2017 8.18209 70.4976C7.99464 70.7969 7.72663 71.0419 7.37805 71.2326C7.03275 71.4233 6.58387 71.5187 6.03141 71.5187H1V70.0784H2.03588V70.0192C1.84514 69.9238 1.6577 69.7807 1.47354 69.59C1.28939 69.3993 1.13647 69.1543 1.0148 68.855C0.893124 68.5558 0.832286 68.1973 0.832286 67.7797ZM2.01615 68.1003C2.01615 68.5081 2.09671 68.8567 2.25785 69.1461C2.41899 69.4387 2.62945 69.6607 2.88924 69.812C3.15232 69.9665 3.43349 70.0438 3.73274 70.0438H4.70943C4.65681 69.9912 4.60749 69.8893 4.56145 69.738C4.5187 69.59 4.48088 69.4207 4.44799 69.2299C4.4184 69.0392 4.39044 68.8534 4.36414 68.6725C4.34112 68.4916 4.32139 68.3404 4.30494 68.2187C4.26877 67.9326 4.20793 67.6712 4.12243 67.4344C4.03693 67.2009 3.91361 67.0135 3.75247 66.8721C3.59463 66.7339 3.38416 66.6649 3.12108 66.6649C2.75606 66.6649 2.47983 66.7997 2.29238 67.0694C2.10822 67.339 2.01615 67.6827 2.01615 68.1003ZM11.1023 74.9581H1V73.4832H11.1023V74.9581Z" fill="#015180"/>
</svg>
