<svg width="80" height="80" viewBox="0 0 80 80" fill="none" xmlns="http://www.w3.org/2000/svg">
<rect width="80" height="80" rx="40" fill="#E7EBF7"/>
<g clip-path="url(#clip0_22_695)">
<path d="M60 45.1288C60.0137 51.9325 54.505 57.4588 47.7012 57.4788H47.675C44.9459 57.4516 42.3048 56.5092 40.175 54.8025C34.7262 59.0413 26.8688 58.0638 22.63 52.6163C20.9636 50.4727 20.0404 47.8449 20 45.13L20 25.7013H22.35V45.13C22.3438 50.65 26.8238 55.13 32.3438 55.135C34.5002 55.1359 36.5991 54.4396 38.3275 53.15C36.3887 50.9266 35.3146 48.08 35.3013 45.13V29.2313C35.3013 26.6325 37.4025 24.53 40.0012 24.53C42.6 24.53 44.7013 26.6338 44.7013 29.2313V45.13C44.7072 48.0697 43.6613 50.9144 41.7525 53.15C46.2063 56.4113 52.4675 55.435 55.7238 50.975C56.9658 49.2784 57.64 47.2327 57.65 45.13V25.7013H60V45.1288ZM42.35 29.2238C42.35 27.9275 41.295 26.8725 40 26.8725C38.705 26.8725 37.65 27.9275 37.65 29.2238V45.1288C37.6551 47.478 38.487 49.7504 40 51.5475C41.5111 49.7493 42.3428 47.4776 42.35 45.1288V29.2238Z" fill="#015180"/>
</g>
<defs>
<clipPath id="clip0_22_695">
<rect width="40" height="40" fill="white" transform="translate(20 21)"/>
</clipPath>
</defs>
</svg>
