<svg width="80" height="81" viewBox="0 0 80 81" fill="none" xmlns="http://www.w3.org/2000/svg">
<rect y="0.800049" width="80" height="80" rx="40" fill="#E7EBF7"/>
<path d="M46.3317 30.6467H56.1917L60 37.2584L52.2617 50.6634C50.185 54.2517 46.795 54.2517 44.7183 50.6634L33.155 30.6467H43.02L50.1417 42.9634C50.3027 43.2607 50.5409 43.5091 50.8313 43.6822C51.1217 43.8554 51.4534 43.947 51.7915 43.9474C52.1296 43.9477 52.4615 43.8568 52.7523 43.6842C53.043 43.5116 53.2817 43.2637 53.4433 42.9667L46.3317 30.6467ZM20 30.6467H29.8683L40.2633 48.6501L39.1017 50.6567C37.025 54.2451 33.6267 54.2451 31.55 50.6567L20 30.6467Z" fill="#015180"/>
</svg>
