<svg width="80" height="80" viewBox="0 0 80 80" fill="none" xmlns="http://www.w3.org/2000/svg">
<rect width="80" height="80" rx="40" fill="#E7EBF7"/>
<g clip-path="url(#clip0_22_725)">
<path d="M54.9225 26.9375L23.9437 32.25H38.75L52.8913 29.8275L53.3188 32.25H55.8587L54.9225 26.9375ZM22.5 33.5V53.5H57.5V33.5H22.5ZM28.6725 36H51.3288C51.2806 36.205 51.2542 36.4145 51.25 36.625C51.25 37.4538 51.5792 38.2487 52.1653 38.8347C52.7513 39.4208 53.5462 39.75 54.375 39.75C54.5913 39.75 54.7962 39.7125 55 39.6713V47.3288C54.795 47.2806 54.5855 47.2542 54.375 47.25C53.5462 47.25 52.7513 47.5792 52.1653 48.1653C51.5792 48.7513 51.25 49.5462 51.25 50.375C51.25 50.5912 51.2875 50.7962 51.3288 51H28.6725C28.7138 50.7962 28.75 50.5912 28.75 50.375C28.75 49.9646 28.6692 49.5583 28.5121 49.1791C28.3551 48.8 28.1249 48.4555 27.8347 48.1653C27.5445 47.8751 27.2 47.6449 26.8209 47.4879C26.4417 47.3308 26.0354 47.25 25.625 47.25C25.4088 47.25 25.2037 47.2875 25 47.3288V39.6725C25.2037 39.7137 25.4088 39.75 25.625 39.75C26.0354 39.75 26.4417 39.6692 26.8209 39.5121C27.2 39.3551 27.5445 39.1249 27.8347 38.8347C28.1249 38.5445 28.3551 38.2 28.5121 37.8209C28.6692 37.4417 28.75 37.0354 28.75 36.625C28.75 36.4087 28.7125 36.2037 28.6712 36H28.6725ZM40 37.25C36.5625 37.25 33.75 40.0625 33.75 43.5C33.75 46.9375 36.5625 49.75 40 49.75C43.4375 49.75 46.25 46.9375 46.25 43.5C46.25 40.0625 43.4375 37.25 40 37.25ZM40 39.75C42.0875 39.75 43.75 41.4125 43.75 43.5C43.75 45.5875 42.0875 47.25 40 47.25C37.9125 47.25 36.25 45.5875 36.25 43.5C36.25 41.4125 37.9125 39.75 40 39.75Z" fill="#015180"/>
</g>
<defs>
<clipPath id="clip0_22_725">
<rect width="40" height="40" fill="white" transform="translate(20 21)"/>
</clipPath>
</defs>
</svg>
