<svg width="80" height="80" viewBox="0 0 80 80" fill="none" xmlns="http://www.w3.org/2000/svg">
<rect width="80" height="80" rx="40" fill="#E7EBF7"/>
<g clip-path="url(#clip0_25_1299)">
<path d="M38.7305 41.0391C38.1055 41.013 37.4609 40.9349 36.7969 40.8047C36.1328 40.6745 35.5208 40.4727 34.9609 40.1992C34.7396 40.0951 34.5638 39.9453 34.4336 39.75C34.3034 39.5547 34.2383 39.3268 34.2383 39.0664C34.2383 38.7279 34.362 38.4349 34.6094 38.1875C34.8568 37.9401 35.1497 37.8164 35.4883 37.8164C35.6576 37.8164 35.8333 37.8555 36.0156 37.9336C36.875 38.3112 37.7734 38.5065 38.7109 38.5195V34.2422C38.2292 34.0729 37.7669 33.8646 37.3242 33.6172C36.8815 33.3698 36.4844 33.0768 36.1328 32.7383C35.7812 32.3997 35.5013 32.0026 35.293 31.5469C35.0846 31.0911 34.9805 30.5898 34.9805 30.043C34.9805 29.5091 35.0846 29.0273 35.293 28.5977C35.5013 28.168 35.7812 27.7969 36.1328 27.4844C36.4844 27.1719 36.8815 26.9049 37.3242 26.6836C37.7669 26.4622 38.2292 26.2995 38.7109 26.1953C38.7109 25.8177 38.8151 25.4922 39.0234 25.2188C39.2318 24.9453 39.5443 24.8021 39.9609 24.7891C40.3125 24.7891 40.6055 24.9062 40.8398 25.1406C41.0742 25.375 41.1979 25.6745 41.2109 26.0391C41.6667 26.0651 42.0964 26.1237 42.5 26.2148C42.9036 26.306 43.3268 26.4167 43.7695 26.5469L42.9102 28.8906C42.6367 28.7865 42.3568 28.7083 42.0703 28.6562C41.7839 28.6042 41.4974 28.5651 41.2109 28.5391V32.4453C41.6536 32.6016 42.0964 32.8099 42.5391 33.0703C42.9818 33.3307 43.3854 33.6367 43.75 33.9883C44.1146 34.3398 44.4076 34.737 44.6289 35.1797C44.8503 35.6224 44.9609 36.1042 44.9609 36.625C44.9609 37.1979 44.8633 37.7188 44.668 38.1875C44.4727 38.6562 44.2122 39.0664 43.8867 39.418C43.5612 39.7695 43.1641 40.0625 42.6953 40.2969C42.2266 40.5312 41.7318 40.7135 41.2109 40.8438C41.2109 41.2083 41.1003 41.5208 40.8789 41.7812C40.6576 42.0417 40.3516 42.1719 39.9609 42.1719C39.6354 42.1719 39.3555 42.0612 39.1211 41.8398C38.8867 41.6185 38.7565 41.3516 38.7305 41.0391ZM41.2109 38.2461C41.5755 38.1029 41.875 37.9076 42.1094 37.6602C42.3438 37.4128 42.4609 37.0742 42.4609 36.6445C42.4609 36.4883 42.4219 36.3385 42.3438 36.1953C42.2656 36.0521 42.1615 35.9219 42.0312 35.8047C41.901 35.6875 41.7643 35.5768 41.6211 35.4727C41.4779 35.3685 41.3411 35.2773 41.2109 35.1992V38.2461ZM37.4805 30.043C37.4805 30.4076 37.6107 30.707 37.8711 30.9414C38.1315 31.1758 38.4115 31.3711 38.7109 31.5273V28.8125C38.6719 28.8255 38.5872 28.8581 38.457 28.9102C38.3268 28.9622 38.2487 29.0078 38.2227 29.0469C38.0404 29.112 37.8711 29.2422 37.7148 29.4375C37.5586 29.6328 37.4805 29.8346 37.4805 30.043ZM52.0312 36.8984C53.2292 37.3672 54.3164 37.9922 55.293 38.7734C56.2695 39.5547 57.1029 40.4466 57.793 41.4492C58.4831 42.4518 59.0234 43.5521 59.4141 44.75C59.8047 45.9479 60 47.1914 60 48.4805C60 49.6263 59.8503 50.7331 59.5508 51.8008C59.2513 52.8685 58.8346 53.8646 58.3008 54.7891C57.7669 55.7135 57.1159 56.5534 56.3477 57.3086C55.5794 58.0638 54.7331 58.7214 53.8086 59.2812C52.8841 59.8411 51.888 60.2643 50.8203 60.5508C49.7526 60.8372 48.6458 60.987 47.5 61C46.1458 61 44.8307 60.7852 43.5547 60.3555C42.2786 59.9258 41.1003 59.3008 40.0195 58.4805C38.9258 59.3008 37.7409 59.9258 36.4648 60.3555C35.1888 60.7852 33.8672 61 32.5 61C31.3411 61 30.2344 60.8503 29.1797 60.5508C28.125 60.2513 27.1289 59.8346 26.1914 59.3008C25.2539 58.7669 24.4141 58.1159 23.6719 57.3477C22.9297 56.5794 22.2786 55.7331 21.7188 54.8086C21.1589 53.8841 20.7357 52.888 20.4492 51.8203C20.1628 50.7526 20.013 49.6393 20 48.4805C20 47.1914 20.1888 45.9544 20.5664 44.7695C20.944 43.5846 21.4844 42.4844 22.1875 41.4688C22.8906 40.4531 23.7305 39.5547 24.707 38.7734C25.6836 37.9922 26.7708 37.3672 27.9688 36.8984C27.6562 35.8047 27.5 34.6784 27.5 33.5195C27.5 32.3737 27.6497 31.2669 27.9492 30.1992C28.2487 29.1315 28.6654 28.1354 29.1992 27.2109C29.7331 26.2865 30.3841 25.4466 31.1523 24.6914C31.9206 23.9362 32.7669 23.2786 33.6914 22.7188C34.6159 22.1589 35.612 21.7357 36.6797 21.4492C37.7474 21.1628 38.8542 21.013 40 21C41.1458 21 42.2526 21.1497 43.3203 21.4492C44.388 21.7487 45.3841 22.1719 46.3086 22.7188C47.2331 23.2656 48.0729 23.9167 48.8281 24.6719C49.5833 25.4271 50.2344 26.2734 50.7812 27.2109C51.3281 28.1484 51.7513 29.1445 52.0508 30.1992C52.3503 31.2539 52.5 32.3607 52.5 33.5195C52.5 34.6784 52.3438 35.8047 52.0312 36.8984ZM40 23.5C38.6198 23.5 37.3242 23.7604 36.1133 24.2812C34.9023 24.8021 33.8411 25.5247 32.9297 26.4492C32.0182 27.3737 31.3021 28.4349 30.7812 29.6328C30.2604 30.8307 30 32.1263 30 33.5195C30 34.8997 30.2604 36.1953 30.7812 37.4062C31.3021 38.6172 32.0117 39.6784 32.9102 40.5898C33.8086 41.5013 34.8698 42.2174 36.0938 42.7383C37.3177 43.2591 38.6198 43.526 40 43.5391C41.3802 43.5391 42.6758 43.2786 43.8867 42.7578C45.0977 42.237 46.1589 41.5208 47.0703 40.6094C47.9818 39.6979 48.6979 38.6367 49.2188 37.4258C49.7396 36.2148 50 34.9128 50 33.5195C50 32.1393 49.7396 30.8438 49.2188 29.6328C48.6979 28.4219 47.9883 27.3607 47.0898 26.4492C46.1914 25.5378 45.1302 24.8216 43.9062 24.3008C42.6823 23.7799 41.3802 23.513 40 23.5ZM32.5 58.5C33.8802 58.5 35.1758 58.2396 36.3867 57.7188C37.5977 57.1979 38.6589 56.4818 39.5703 55.5703C40.4818 54.6589 41.1979 53.5977 41.7188 52.3867C42.2396 51.1758 42.5 49.8737 42.5 48.4805C42.5 47.5951 42.3698 46.7227 42.1094 45.8633C41.4062 45.9805 40.7031 46.0391 40 46.0391C38.6328 46.0391 37.3112 45.8242 36.0352 45.3945C34.7591 44.9648 33.5677 44.3333 32.4609 43.5C32.3698 43.5521 32.2852 43.5846 32.207 43.5977C31.0612 43.9362 30.1953 44.5286 29.6094 45.375C29.0234 46.2214 28.724 47.2435 28.7109 48.4414V48.4805H31.1719C31.5104 48.4805 31.8034 48.6042 32.0508 48.8516C32.2982 49.099 32.4219 49.3919 32.4219 49.7305C32.4219 50.1341 32.3112 50.4206 32.0898 50.5898C31.8685 50.7591 31.6016 50.8763 31.2891 50.9414C30.9766 51.0065 30.6445 51.0326 30.293 51.0195C29.9414 51.0065 29.6419 50.9935 29.3945 50.9805C29.8503 51.7487 30.4557 52.3477 31.2109 52.7773C31.9661 53.207 32.7995 53.4284 33.7109 53.4414C34.0885 53.4414 34.4401 53.4023 34.7656 53.3242C35.0911 53.2461 35.4297 53.1354 35.7812 52.9922C35.9505 52.9271 36.1198 52.8945 36.2891 52.8945C36.6276 52.8945 36.9206 53.0117 37.168 53.2461C37.4154 53.4805 37.5391 53.7734 37.5391 54.125C37.5391 54.5026 37.3958 54.8086 37.1094 55.043C36.8229 55.2773 36.4714 55.4596 36.0547 55.5898C35.638 55.7201 35.2148 55.8112 34.7852 55.8633C34.3555 55.9154 33.9974 55.9414 33.7109 55.9414C32.9167 55.9414 32.1549 55.8242 31.4258 55.5898C30.6966 55.3555 30.0195 55.0169 29.3945 54.5742C28.7695 54.1315 28.2227 53.6107 27.7539 53.0117C27.2852 52.4128 26.9141 51.7357 26.6406 50.9805C26.4323 50.9805 26.2305 50.9609 26.0352 50.9219C25.8398 50.8828 25.6706 50.8177 25.5273 50.7266C25.3841 50.6354 25.2604 50.5117 25.1562 50.3555C25.0521 50.1992 25.0065 49.9909 25.0195 49.7305C25.0195 49.3919 25.1302 49.1055 25.3516 48.8711C25.5729 48.6367 25.8594 48.5065 26.2109 48.4805C26.2109 47.7513 26.3021 47.0417 26.4844 46.3516C26.6667 45.6615 26.9336 45.0104 27.2852 44.3984C27.6367 43.7865 28.0729 43.2396 28.5938 42.7578C29.1146 42.276 29.7266 41.8854 30.4297 41.5859C30.1302 41.2083 29.8503 40.8177 29.5898 40.4141C29.3294 40.0104 29.082 39.5938 28.8477 39.1641C27.8841 39.5417 27.0182 40.043 26.25 40.668C25.4818 41.293 24.8112 42.0156 24.2383 42.8359C23.6654 43.6562 23.2357 44.5417 22.9492 45.4922C22.6628 46.4427 22.513 47.4388 22.5 48.4805C22.5 49.8607 22.7604 51.1562 23.2812 52.3672C23.8021 53.5781 24.5117 54.6393 25.4102 55.5508C26.3086 56.4622 27.3698 57.1784 28.5938 57.6992C29.8177 58.2201 31.1198 58.487 32.5 58.5ZM47.5 58.5C48.8802 58.5 50.1758 58.2396 51.3867 57.7188C52.5977 57.1979 53.6589 56.4818 54.5703 55.5703C55.4818 54.6589 56.1979 53.5977 56.7188 52.3867C57.2396 51.1758 57.5 49.8737 57.5 48.4805C57.5 47.4518 57.3503 46.4622 57.0508 45.5117C56.7513 44.5612 56.3216 43.6758 55.7617 42.8555C55.2018 42.0352 54.5312 41.319 53.75 40.707C52.9688 40.0951 52.1029 39.5872 51.1523 39.1836C50.6576 40.1471 50.0521 41.0326 49.3359 41.8398C48.6198 42.6471 47.8125 43.3503 46.9141 43.9492L48.7305 46.4102L51.4648 42.7578C51.7122 42.4193 52.0443 42.25 52.4609 42.25C52.8125 42.25 53.112 42.3737 53.3594 42.6211C53.6068 42.8685 53.7305 43.168 53.7305 43.5195C53.7305 43.7799 53.6458 44.0273 53.4766 44.2617L49.9609 48.9297V50.9805H50.7617C51.0482 50.9805 51.3216 51.0065 51.582 51.0586C51.8424 51.1107 52.0573 51.2279 52.2266 51.4102C52.3958 51.5924 52.487 51.8659 52.5 52.2305C52.5 52.5951 52.4154 52.862 52.2461 53.0312C52.0768 53.2005 51.862 53.3242 51.6016 53.4023C51.3411 53.4805 51.0677 53.513 50.7812 53.5C50.4948 53.487 50.2214 53.4805 49.9609 53.4805V54.2812C49.9609 54.5677 49.9349 54.8411 49.8828 55.1016C49.8307 55.362 49.7135 55.5768 49.5312 55.7461C49.349 55.9154 49.0755 56.0065 48.7109 56.0195C48.3464 56.0195 48.0794 55.9349 47.9102 55.7656C47.7409 55.5964 47.6172 55.3815 47.5391 55.1211C47.4609 54.8607 47.4284 54.5872 47.4414 54.3008C47.4544 54.0143 47.4609 53.7409 47.4609 53.4805H46.6602C46.3737 53.4805 46.1068 53.4544 45.8594 53.4023C45.612 53.3503 45.3971 53.2331 45.2148 53.0508C45.0326 52.8685 44.9479 52.5951 44.9609 52.2305C44.9609 51.8659 45.0456 51.599 45.2148 51.4297C45.3841 51.2604 45.5924 51.1367 45.8398 51.0586C46.0872 50.9805 46.3607 50.9479 46.6602 50.9609C46.9596 50.974 47.2266 50.9805 47.4609 50.9805V48.9297L44.6875 45.1406L44.5703 45.1797C44.7266 45.7135 44.8372 46.2604 44.9023 46.8203C44.9674 47.3802 45 47.9336 45 48.4805C45 50.0169 44.7396 51.4883 44.2188 52.8945C43.6979 54.3008 42.9232 55.5833 41.8945 56.7422C42.7279 57.3151 43.6133 57.7513 44.5508 58.0508C45.4883 58.3503 46.4714 58.5 47.5 58.5Z" fill="#015180"/>
</g>
<defs>
<clipPath id="clip0_25_1299">
<rect width="40" height="40" fill="white" transform="translate(20 21)"/>
</clipPath>
</defs>
</svg>
